<svg width="63" height="29" viewBox="0 0 63 29" fill="none" xmlns="http://www.w3.org/2000/svg">
<path fill-rule="evenodd" clip-rule="evenodd" d="M7.81448 8.4057C8.54126 8.03804 9.42848 8.32916 9.79614 9.05594C12.3573 14.1186 17.1366 20.5315 24.1325 23.8262C31.0135 27.0669 40.3133 27.4205 52.3081 19.9014C52.9982 19.4688 53.9083 19.6776 54.3409 20.3677C54.7735 21.0578 54.5648 21.9679 53.8747 22.4005C41.1673 30.3663 30.8038 30.2283 22.8759 26.4946C15.0628 22.8151 9.88763 15.7708 7.16425 10.3874C6.79659 9.66059 7.0877 8.77337 7.81448 8.4057Z" fill="white"/>
<path fill-rule="evenodd" clip-rule="evenodd" d="M14.5266 3.74914C15.1782 4.23783 15.3103 5.1622 14.8216 5.81379C12.9929 8.25198 10.848 9.70936 8.37529 10.1589C5.94047 10.6016 3.40812 10.0262 0.857099 8.84876C0.117583 8.50745 -0.205223 7.63126 0.136092 6.89174C0.477408 6.15223 1.35359 5.82942 2.09311 6.17074C4.33502 7.20547 6.22693 7.5517 7.84767 7.25702C9.43049 6.96924 10.9725 6.03014 12.462 4.04409C12.9507 3.3925 13.8751 3.26045 14.5266 3.74914Z" fill="white"/>
<path fill-rule="evenodd" clip-rule="evenodd" d="M61.8462 20.6743C62.0793 21.4547 61.6357 22.2764 60.8553 22.5095C57.935 23.3819 55.344 23.2777 53.0888 22.1683C50.8681 21.076 49.1747 19.1071 47.8243 16.6433C47.4328 15.9291 47.6945 15.0328 48.4087 14.6413C49.123 14.2498 50.0193 14.5115 50.4108 15.2257C51.5976 17.391 52.9125 18.7946 54.3907 19.5217C55.8342 20.2318 57.6323 20.394 60.011 19.6834C60.7914 19.4503 61.6131 19.8939 61.8462 20.6743Z" fill="white"/>
<path d="M31.3388 4.55992C31.3388 6.59613 29.6882 8.24679 27.652 8.24679C25.6158 8.24679 23.9651 6.59613 23.9651 4.55992C23.9651 2.52372 25.6158 0.873047 27.652 0.873047C29.6882 0.873047 31.3388 2.52372 31.3388 4.55992Z" fill="white"/>
<path d="M43.8742 6.77183C43.8742 8.80804 42.2236 10.4587 40.1874 10.4587C38.1512 10.4587 36.5005 8.80804 36.5005 6.77183C36.5005 4.73563 38.1512 3.08496 40.1874 3.08496C42.2236 3.08496 43.8742 4.73563 43.8742 6.77183Z" fill="white"/>
</svg>
