<svg width="201" height="25" viewBox="0 0 201 25" fill="none" xmlns="http://www.w3.org/2000/svg">
<path d="M7.768 24.32C6.44533 24.32 5.21867 24.0107 4.088 23.392C2.97867 22.752 2.08267 21.856 1.4 20.704C0.738667 19.5307 0.408 18.1653 0.408 16.608C0.408 15.072 0.696 13.728 1.272 12.576C1.86933 11.424 2.712 10.528 3.8 9.888C4.888 9.248 6.168 8.928 7.64 8.928C8.49333 8.928 9.29333 9.07733 10.04 9.376C10.7867 9.67467 11.416 10.048 11.928 10.496C12.44 10.9227 12.7813 11.3493 12.952 11.776L13.016 9.312H16.312V24H13.048L12.984 21.408C12.6213 22.176 11.96 22.8587 11 23.456C10.04 24.032 8.96267 24.32 7.768 24.32ZM8.344 21.44C9.56 21.44 10.584 21.024 11.416 20.192C12.248 19.3387 12.664 18.2293 12.664 16.864V16.64C12.664 15.7227 12.472 14.9013 12.088 14.176C11.704 13.4507 11.1813 12.8853 10.52 12.48C9.85867 12.0747 9.13333 11.872 8.344 11.872C6.97867 11.872 5.92267 12.32 5.176 13.216C4.42933 14.0907 4.056 15.232 4.056 16.64C4.056 18.0693 4.41867 19.232 5.144 20.128C5.89067 21.0027 6.95733 21.44 8.344 21.44ZM20.4155 9.312H23.8075L23.8395 12C24.2448 11.104 24.8848 10.368 25.7595 9.792C26.6342 9.216 27.6582 8.928 28.8315 8.928C30.3462 8.928 31.5088 9.248 32.3195 9.888C33.1302 10.5067 33.6742 11.3813 33.9515 12.512C34.2288 13.6427 34.3675 15.1147 34.3675 16.928V24H30.9115V17.024C30.9115 15.168 30.7302 13.8347 30.3675 13.024C30.0048 12.192 29.2582 11.776 28.1275 11.776C27.4875 11.776 26.8368 11.9787 26.1755 12.384C25.5142 12.768 24.9595 13.3333 24.5115 14.08C24.0848 14.8267 23.8715 15.7013 23.8715 16.704V24H20.4155V9.312ZM45.1257 24.32C43.6111 24.32 42.2671 23.9787 41.0937 23.296C39.9204 22.6133 39.0137 21.6853 38.3737 20.512C37.7337 19.3387 37.4137 18.0373 37.4137 16.608C37.4137 15.2 37.7231 13.9093 38.3417 12.736C38.9817 11.5627 39.8884 10.6347 41.0617 9.952C42.2351 9.26933 43.5897 8.928 45.1257 8.928C46.6617 8.928 48.0057 9.26933 49.1577 9.952C50.3311 10.6347 51.2271 11.5627 51.8457 12.736C52.4857 13.9093 52.8057 15.2 52.8057 16.608C52.8057 18.0373 52.4857 19.3387 51.8457 20.512C51.2057 21.6853 50.2991 22.6133 49.1257 23.296C47.9737 23.9787 46.6404 24.32 45.1257 24.32ZM45.2217 21.504C46.4591 21.504 47.4297 21.0453 48.1337 20.128C48.8591 19.2107 49.2217 18.0587 49.2217 16.672C49.2217 15.2853 48.8377 14.1227 48.0697 13.184C47.3017 12.224 46.2884 11.744 45.0297 11.744C43.8137 11.744 42.8324 12.2133 42.0857 13.152C41.3604 14.0907 40.9977 15.264 40.9977 16.672C40.9977 18.0373 41.3924 19.1893 42.1817 20.128C42.9711 21.0453 43.9844 21.504 45.2217 21.504ZM55.9525 9.312H59.3445L59.3765 12C59.7818 11.104 60.4218 10.368 61.2965 9.792C62.1712 9.216 63.1952 8.928 64.3685 8.928C65.8832 8.928 67.0458 9.248 67.8565 9.888C68.6672 10.5067 69.2112 11.3813 69.4885 12.512C69.7658 13.6427 69.9045 15.1147 69.9045 16.928V24H66.4485V17.024C66.4485 15.168 66.2672 13.8347 65.9045 13.024C65.5418 12.192 64.7952 11.776 63.6645 11.776C63.0245 11.776 62.3738 11.9787 61.7125 12.384C61.0512 12.768 60.4965 13.3333 60.0485 14.08C59.6218 14.8267 59.4085 15.7013 59.4085 16.704V24H55.9525V9.312ZM80.3107 24.32C78.9881 24.32 77.7614 24.0107 76.6307 23.392C75.5214 22.752 74.6254 21.856 73.9427 20.704C73.2814 19.5307 72.9507 18.1653 72.9507 16.608C72.9507 14.2827 73.6014 12.4267 74.9027 11.04C76.2041 9.632 77.9641 8.928 80.1827 8.928C81.4201 8.928 82.5507 9.23733 83.5747 9.856C84.5987 10.4533 85.2921 11.1787 85.6547 12.032L85.4947 9.536V0.48H88.8867V24H85.5907L85.5267 21.408C85.1641 22.176 84.5027 22.8587 83.5427 23.456C82.5827 24.032 81.5054 24.32 80.3107 24.32ZM80.8867 21.408C82.1027 21.408 83.1267 20.992 83.9587 20.16C84.7907 19.3067 85.2067 18.1973 85.2067 16.832V16.608C85.2067 15.6907 85.0147 14.8693 84.6307 14.144C84.2467 13.4187 83.7241 12.8533 83.0627 12.448C82.4014 12.0427 81.6761 11.84 80.8867 11.84C79.5214 11.84 78.4654 12.288 77.7187 13.184C76.9721 14.0587 76.5987 15.2 76.5987 16.608C76.5987 18.0373 76.9614 19.2 77.6867 20.096C78.4334 20.9707 79.5001 21.408 80.8867 21.408ZM99.871 24.32C98.1217 24.32 96.6603 23.9787 95.487 23.296C94.3137 22.592 93.4497 21.664 92.895 20.512C92.3403 19.3387 92.063 18.0587 92.063 16.672C92.063 15.1147 92.383 13.7493 93.023 12.576C93.6843 11.4027 94.591 10.5067 95.743 9.888C96.895 9.248 98.1963 8.928 99.647 8.928C101.908 8.928 103.583 9.55733 104.671 10.816C105.78 12.0533 106.335 13.8027 106.335 16.064C106.335 16.64 106.303 17.2373 106.239 17.856H95.679C95.9137 19.1573 96.3723 20.096 97.055 20.672C97.759 21.248 98.7297 21.536 99.967 21.536C100.991 21.536 101.834 21.4507 102.495 21.28C103.156 21.1093 103.764 20.8747 104.319 20.576L105.375 23.04C104.842 23.3813 104.116 23.68 103.199 23.936C102.282 24.192 101.172 24.32 99.871 24.32ZM102.975 15.456C102.996 14.1333 102.708 13.2053 102.111 12.672C101.514 12.1173 100.66 11.84 99.551 11.84C97.311 11.84 96.0203 13.0453 95.679 15.456H102.975ZM109.318 9.312H112.774V12.192C113.116 11.2107 113.67 10.4213 114.438 9.824C115.206 9.22667 116.081 8.928 117.062 8.928C117.745 8.928 118.214 8.992 118.47 9.12L117.99 12.608C117.798 12.48 117.382 12.416 116.742 12.416C115.74 12.416 114.822 12.736 113.99 13.376C113.18 14.016 112.774 15.04 112.774 16.448V24H109.318V9.312Z" fill="white"/>
<path d="M129.074 24.32C127.88 24.32 126.802 24.032 125.842 23.456C124.904 22.8587 124.253 22.176 123.89 21.408L123.826 24H120.498V0.48H123.89V9.536L123.73 12.032C124.093 11.1787 124.797 10.4533 125.842 9.856C126.909 9.23733 128.061 8.928 129.298 8.928C130.749 8.928 132.008 9.25867 133.074 9.92C134.162 10.56 134.994 11.4667 135.57 12.64C136.146 13.792 136.434 15.136 136.434 16.672C136.434 18.2293 136.093 19.584 135.41 20.736C134.749 21.888 133.853 22.7733 132.722 23.392C131.613 24.0107 130.397 24.32 129.074 24.32ZM128.498 21.44C129.885 21.44 130.952 21.0027 131.698 20.128C132.445 19.232 132.818 18.08 132.818 16.672C132.818 15.2427 132.445 14.0907 131.698 13.216C130.973 12.32 129.906 11.872 128.498 11.872C127.282 11.872 126.258 12.2987 125.426 13.152C124.594 13.984 124.178 15.0827 124.178 16.448V16.672C124.178 17.5893 124.37 18.4107 124.754 19.136C125.16 19.8613 125.682 20.4267 126.322 20.832C126.984 21.2373 127.709 21.44 128.498 21.44ZM146.072 24.32C144.75 24.32 143.523 24.0107 142.392 23.392C141.283 22.752 140.387 21.856 139.704 20.704C139.043 19.5307 138.712 18.1653 138.712 16.608C138.712 15.072 139 13.728 139.576 12.576C140.174 11.424 141.016 10.528 142.104 9.888C143.192 9.248 144.472 8.928 145.944 8.928C146.798 8.928 147.598 9.07733 148.344 9.376C149.091 9.67467 149.72 10.048 150.232 10.496C150.744 10.9227 151.086 11.3493 151.256 11.776L151.32 9.312H154.616V24H151.352L151.288 21.408C150.926 22.176 150.264 22.8587 149.304 23.456C148.344 24.032 147.267 24.32 146.072 24.32ZM146.648 21.44C147.864 21.44 148.888 21.024 149.72 20.192C150.552 19.3387 150.968 18.2293 150.968 16.864V16.64C150.968 15.7227 150.776 14.9013 150.392 14.176C150.008 13.4507 149.486 12.8853 148.824 12.48C148.163 12.0747 147.438 11.872 146.648 11.872C145.283 11.872 144.227 12.32 143.48 13.216C142.734 14.0907 142.36 15.232 142.36 16.64C142.36 18.0693 142.723 19.232 143.448 20.128C144.195 21.0027 145.262 21.44 146.648 21.44ZM163.776 13.216L164.576 12.064L161.024 12.16H158.496V9.312H169.92L163.296 20.128L162.496 21.344L165.952 21.216L169.664 21.152V24H157.088L163.776 13.216ZM179.14 24.32C177.818 24.32 176.591 24.0107 175.46 23.392C174.351 22.752 173.455 21.856 172.772 20.704C172.111 19.5307 171.78 18.1653 171.78 16.608C171.78 15.072 172.068 13.728 172.644 12.576C173.242 11.424 174.084 10.528 175.172 9.888C176.26 9.248 177.54 8.928 179.012 8.928C179.866 8.928 180.666 9.07733 181.412 9.376C182.159 9.67467 182.788 10.048 183.3 10.496C183.812 10.9227 184.154 11.3493 184.324 11.776L184.388 9.312H187.684V24H184.42L184.356 21.408C183.994 22.176 183.332 22.8587 182.372 23.456C181.412 24.032 180.335 24.32 179.14 24.32ZM179.716 21.44C180.932 21.44 181.956 21.024 182.788 20.192C183.62 19.3387 184.036 18.2293 184.036 16.864V16.64C184.036 15.7227 183.844 14.9013 183.46 14.176C183.076 13.4507 182.554 12.8853 181.892 12.48C181.231 12.0747 180.506 11.872 179.716 11.872C178.351 11.872 177.295 12.32 176.548 13.216C175.802 14.0907 175.428 15.232 175.428 16.64C175.428 18.0693 175.791 19.232 176.516 20.128C177.263 21.0027 178.33 21.44 179.716 21.44ZM191.692 9.312H195.148V12.192C195.489 11.2107 196.044 10.4213 196.812 9.824C197.58 9.22667 198.455 8.928 199.436 8.928C200.119 8.928 200.588 8.992 200.844 9.12L200.364 12.608C200.172 12.48 199.756 12.416 199.116 12.416C198.113 12.416 197.196 12.736 196.364 13.376C195.553 14.016 195.148 15.04 195.148 16.448V24H191.692V9.312Z" fill="#ED1C24"/>
</svg>
