<svg width="399" height="116" viewBox="0 0 399 116" fill="none" xmlns="http://www.w3.org/2000/svg">
<g filter="url(#filter0_d)">
<path d="M22.4 44H8.3C8.1 44 8 43.9 8 43.7V1.4C8 1.2 8.1 1.1 8.3 1.1H22.4C26.84 1.1 30.36 2.44 32.96 5.12C35.6 7.76 36.92 11.36 36.92 15.92V29.36C36.92 33.92 35.6 37.5 32.96 40.1C30.36 42.7 26.84 44 22.4 44ZM9.26 2.3V42.8H22.4C26.52 42.8 29.76 41.62 32.12 39.26C34.48 36.9 35.66 33.6 35.66 29.36V15.92C35.66 11.64 34.48 8.3 32.12 5.9C29.76 3.5 26.52 2.3 22.4 2.3H9.26ZM47.0736 44H46.4736C46.2736 44 46.1736 43.9 46.1736 43.7V13.52C46.1736 13.32 46.2736 13.22 46.4736 13.22H47.0736C47.2736 13.22 47.3736 13.32 47.3736 13.52V43.7C47.3736 43.9 47.2736 44 47.0736 44ZM46.7736 3.8C47.5736 3.8 47.9736 4.2 47.9736 5C47.9736 5.8 47.5736 6.2 46.7736 6.2C45.9736 6.2 45.5736 5.8 45.5736 5C45.5736 4.2 45.9736 3.8 46.7736 3.8ZM77.9577 15.56V1.4C77.9577 1.2 78.0577 1.1 78.2577 1.1H78.8577C79.0577 1.1 79.1577 1.2 79.1577 1.4V42.14C79.1577 42.34 79.0777 42.46 78.9177 42.5C75.5577 43.9 71.9777 44.6 68.1777 44.6C59.8177 44.6 55.6377 40.34 55.6377 31.82V25.52C55.6377 16.92 59.8177 12.62 68.1777 12.62C71.8177 12.62 75.0777 13.6 77.9577 15.56ZM56.8377 31.82C56.8377 39.58 60.6177 43.46 68.1777 43.46C71.4177 43.46 74.6777 42.88 77.9577 41.72V16.82C74.8777 14.78 71.6177 13.76 68.1777 13.76C60.6177 13.76 56.8377 17.68 56.8377 25.52V31.82ZM124.727 39.32V13.52C124.727 13.32 124.827 13.22 125.027 13.22H125.627C125.827 13.22 125.927 13.32 125.927 13.52V45.32C125.927 48.52 124.967 51.1 123.047 53.06C121.167 55.02 118.347 56 114.587 56C110.667 56 106.967 54.4 103.487 51.2C103.367 51.04 103.367 50.9 103.487 50.78L103.847 50.36C103.967 50.2 104.107 50.2 104.267 50.36C107.547 53.36 110.987 54.86 114.587 54.86C118.027 54.86 120.567 54 122.207 52.28C123.887 50.56 124.727 48.24 124.727 45.32V40.52C121.927 42.04 118.747 42.8 115.187 42.8C111.307 42.8 108.267 41.84 106.067 39.92C103.907 37.96 102.827 35.1 102.827 31.34V13.52C102.827 13.32 102.927 13.22 103.127 13.22H103.727C103.927 13.22 104.027 13.32 104.027 13.52V31.34C104.027 34.78 105.007 37.36 106.967 39.08C108.927 40.8 111.687 41.66 115.247 41.66C118.647 41.66 121.807 40.88 124.727 39.32ZM158.872 33.44C158.872 36.68 157.792 39.36 155.632 41.48C153.512 43.56 150.492 44.6 146.572 44.6C142.652 44.6 139.612 43.56 137.452 41.48C135.332 39.36 134.272 36.68 134.272 33.44V23.72C134.272 20.52 135.352 17.88 137.512 15.8C139.672 13.68 142.692 12.62 146.572 12.62C150.492 12.62 153.512 13.68 155.632 15.8C157.792 17.88 158.872 20.52 158.872 23.72V33.44ZM135.472 33.44C135.472 36.36 136.432 38.76 138.352 40.64C140.272 42.52 143.012 43.46 146.572 43.46C150.172 43.46 152.912 42.52 154.792 40.64C156.712 38.76 157.672 36.36 157.672 33.44V23.72C157.672 20.84 156.712 18.46 154.792 16.58C152.912 14.7 150.172 13.76 146.572 13.76C143.012 13.76 140.272 14.7 138.352 16.58C136.432 18.46 135.472 20.84 135.472 23.72V33.44ZM189.128 13.22H189.728C189.928 13.22 190.028 13.32 190.028 13.52V41.96C190.028 42.16 189.948 42.28 189.788 42.32C186.508 43.84 182.988 44.6 179.228 44.6C175.308 44.6 172.268 43.58 170.108 41.54C167.988 39.5 166.928 36.54 166.928 32.66V13.52C166.928 13.32 167.028 13.22 167.228 13.22H167.828C168.028 13.22 168.128 13.32 168.128 13.52V32.66C168.128 36.18 169.088 38.86 171.008 40.7C172.928 42.54 175.668 43.46 179.228 43.46C182.268 43.46 185.468 42.82 188.828 41.54V13.52C188.828 13.32 188.928 13.22 189.128 13.22ZM226.466 1.82C225.266 1.7 224.086 1.64 222.926 1.64C220.406 1.64 218.486 2.38 217.166 3.86C215.846 5.3 215.186 7.36 215.186 10.04V13.22H226.166C226.366 13.22 226.466 13.32 226.466 13.52V14.06C226.466 14.26 226.366 14.36 226.166 14.36H215.186V43.7C215.186 43.9 215.086 44 214.886 44H214.286C214.086 44 213.986 43.9 213.986 43.7V10.04C213.986 7.08 214.766 4.76 216.326 3.08C217.886 1.36 220.086 0.499999 222.926 0.499999C224.166 0.499999 225.386 0.559998 226.586 0.679996C226.786 0.759998 226.886 0.879998 226.886 1.04V1.58C226.886 1.82 226.746 1.9 226.466 1.82ZM232.992 44H232.392C232.192 44 232.092 43.9 232.092 43.7V13.52C232.092 13.32 232.192 13.22 232.392 13.22H232.992C233.192 13.22 233.292 13.32 233.292 13.52V43.7C233.292 43.9 233.192 44 232.992 44ZM232.692 3.8C233.492 3.8 233.892 4.2 233.892 5C233.892 5.8 233.492 6.2 232.692 6.2C231.892 6.2 231.492 5.8 231.492 5C231.492 4.2 231.892 3.8 232.692 3.8ZM243.596 44H242.996C242.796 44 242.696 43.9 242.696 43.7V15.26C242.696 15.06 242.776 14.94 242.936 14.9C246.296 13.38 249.896 12.62 253.736 12.62C257.736 12.62 260.816 13.64 262.976 15.68C265.176 17.72 266.276 20.68 266.276 24.56V43.7C266.276 43.9 266.176 44 265.976 44H265.376C265.176 44 265.076 43.9 265.076 43.7V24.56C265.076 21 264.096 18.32 262.136 16.52C260.176 14.68 257.376 13.76 253.736 13.76C250.336 13.76 247.056 14.4 243.896 15.68V43.7C243.896 43.9 243.796 44 243.596 44ZM296.571 15.56V1.4C296.571 1.2 296.671 1.1 296.871 1.1H297.471C297.671 1.1 297.771 1.2 297.771 1.4V42.14C297.771 42.34 297.691 42.46 297.531 42.5C294.171 43.9 290.591 44.6 286.791 44.6C278.431 44.6 274.251 40.34 274.251 31.82V25.52C274.251 16.92 278.431 12.62 286.791 12.62C290.431 12.62 293.691 13.6 296.571 15.56ZM275.451 31.82C275.451 39.58 279.231 43.46 286.791 43.46C290.031 43.46 293.291 42.88 296.571 41.72V16.82C293.491 14.78 290.231 13.76 286.791 13.76C279.231 13.76 275.451 17.68 275.451 25.52V31.82ZM322.7 34.94C322.7 37.62 323.36 39.7 324.68 41.18C326 42.62 327.92 43.34 330.44 43.34C331.72 43.34 332.96 43.28 334.16 43.16C334.36 43.08 334.46 43.16 334.46 43.4V43.94C334.46 44.1 334.36 44.22 334.16 44.3C332.96 44.42 331.72 44.48 330.44 44.48C327.6 44.48 325.4 43.64 323.84 41.96C322.28 40.24 321.5 37.9 321.5 34.94V5.72C321.5 5.52 321.6 5.42 321.8 5.42H322.4C322.6 5.42 322.7 5.52 322.7 5.72V13.22H333.38C333.58 13.22 333.68 13.32 333.68 13.52V14.06C333.68 14.26 333.58 14.36 333.38 14.36H322.7V34.94ZM340.811 15.08C344.091 13.44 347.371 12.62 350.651 12.62C354.651 12.62 357.731 13.64 359.891 15.68C362.091 17.68 363.191 20.64 363.191 24.56V43.7C363.191 43.9 363.091 44 362.891 44H362.291C362.091 44 361.991 43.9 361.991 43.7V24.56C361.991 17.36 358.211 13.76 350.651 13.76C347.331 13.76 344.051 14.6 340.811 16.28V43.7C340.811 43.9 340.711 44 340.511 44H339.911C339.711 44 339.611 43.9 339.611 43.7V1.4C339.611 1.2 339.711 1.1 339.911 1.1H340.511C340.711 1.1 340.811 1.2 340.811 1.4V15.08ZM394.745 23.9V29.18C394.745 29.38 394.645 29.48 394.445 29.48H372.425V33.74C372.425 36.7 373.445 39.06 375.485 40.82C377.525 42.58 380.025 43.46 382.985 43.46C386.785 43.46 390.265 42 393.425 39.08C393.585 38.96 393.725 38.98 393.845 39.14L394.205 39.5C394.365 39.66 394.365 39.8 394.205 39.92C390.845 43.04 387.105 44.6 382.985 44.6C379.705 44.6 376.925 43.6 374.645 41.6C372.365 39.6 371.225 36.98 371.225 33.74V23.9C371.225 20.42 372.285 17.68 374.405 15.68C376.525 13.64 379.385 12.62 382.985 12.62C386.545 12.62 389.385 13.64 391.505 15.68C393.665 17.68 394.745 20.42 394.745 23.9ZM393.545 23.9C393.545 20.74 392.585 18.26 390.665 16.46C388.745 14.66 386.185 13.76 382.985 13.76C379.705 13.76 377.125 14.66 375.245 16.46C373.365 18.22 372.425 20.7 372.425 23.9V28.34H393.545V23.9ZM27.08 99.14C27.08 101.66 26.1 103.7 24.14 105.26C22.22 106.82 19.48 107.6 15.92 107.6C11.72 107.6 7.96 106.32 4.64 103.76C4.44 103.64 4.42 103.5 4.58 103.34L4.88 102.86C5 102.74 5.14 102.72 5.3 102.8C8.54 105.24 12.08 106.46 15.92 106.46C18.96 106.46 21.38 105.82 23.18 104.54C24.98 103.26 25.88 101.46 25.88 99.14C25.88 98.14 25.66 97.24 25.22 96.44C24.78 95.64 24.3 95.02 23.78 94.58C23.26 94.1 22.46 93.68 21.38 93.32C20.34 92.92 19.48 92.64 18.8 92.48C18.16 92.28 17.2 92.06 15.92 91.82C14.44 91.54 13.14 91.22 12.02 90.86C10.9 90.46 9.76 89.94 8.6 89.3C7.44 88.66 6.54 87.82 5.9 86.78C5.3 85.74 5 84.54 5 83.18C5 80.9 5.94 79.08 7.82 77.72C9.74 76.32 12.22 75.62 15.26 75.62C18.9 75.62 22.44 76.6 25.88 78.56C26.04 78.72 26.06 78.86 25.94 78.98L25.7 79.46C25.62 79.62 25.48 79.64 25.28 79.52C22.08 77.68 18.74 76.76 15.26 76.76C12.62 76.76 10.44 77.34 8.72 78.5C7.04 79.62 6.2 81.18 6.2 83.18C6.2 84.14 6.4 85.02 6.8 85.82C7.2 86.58 7.7 87.2 8.3 87.68C8.9 88.16 9.66 88.62 10.58 89.06C11.54 89.46 12.42 89.78 13.22 90.02C14.06 90.22 15.04 90.44 16.16 90.68C17.52 90.96 18.62 91.22 19.46 91.46C20.3 91.7 21.26 92.04 22.34 92.48C23.42 92.92 24.26 93.42 24.86 93.98C25.46 94.5 25.98 95.22 26.42 96.14C26.86 97.02 27.08 98.02 27.08 99.14ZM57.7391 96.44C57.7391 99.68 56.6591 102.36 54.4991 104.48C52.3791 106.56 49.3591 107.6 45.4391 107.6C41.5191 107.6 38.4791 106.56 36.3191 104.48C34.1991 102.36 33.1391 99.68 33.1391 96.44V86.72C33.1391 83.52 34.2191 80.88 36.3791 78.8C38.5391 76.68 41.5591 75.62 45.4391 75.62C49.3591 75.62 52.3791 76.68 54.4991 78.8C56.6591 80.88 57.7391 83.52 57.7391 86.72V96.44ZM34.3391 96.44C34.3391 99.36 35.2991 101.76 37.2191 103.64C39.1391 105.52 41.8791 106.46 45.4391 106.46C49.0391 106.46 51.7791 105.52 53.6591 103.64C55.5791 101.76 56.5391 99.36 56.5391 96.44V86.72C56.5391 83.84 55.5791 81.46 53.6591 79.58C51.7791 77.7 49.0391 76.76 45.4391 76.76C41.8791 76.76 39.1391 77.7 37.2191 79.58C35.2991 81.46 34.3391 83.84 34.3391 86.72V96.44ZM76.6555 107.3C75.5355 107.5 74.3555 107.6 73.1155 107.6C68.2755 107.6 65.8555 104.38 65.8555 97.94V64.4C65.8555 64.2 65.9555 64.1 66.1555 64.1H66.7555C66.9555 64.1 67.0555 64.2 67.0555 64.4V98.18C67.0555 103.7 69.0755 106.46 73.1155 106.46C74.0755 106.46 75.2555 106.36 76.6555 106.16C76.8555 106.16 76.9555 106.24 76.9555 106.4V106.94C76.9555 107.1 76.8555 107.22 76.6555 107.3ZM102.878 76.22H103.478C103.678 76.22 103.778 76.32 103.778 76.52V104.96C103.778 105.16 103.698 105.28 103.538 105.32C100.258 106.84 96.7383 107.6 92.9783 107.6C89.0583 107.6 86.0183 106.58 83.8583 104.54C81.7383 102.5 80.6783 99.54 80.6783 95.66V76.52C80.6783 76.32 80.7783 76.22 80.9783 76.22H81.5783C81.7783 76.22 81.8783 76.32 81.8783 76.52V95.66C81.8783 99.18 82.8383 101.86 84.7583 103.7C86.6783 105.54 89.4183 106.46 92.9783 106.46C96.0183 106.46 99.2183 105.82 102.578 104.54V76.52C102.578 76.32 102.678 76.22 102.878 76.22ZM114.165 97.94C114.165 100.62 114.825 102.7 116.145 104.18C117.465 105.62 119.385 106.34 121.905 106.34C123.185 106.34 124.425 106.28 125.625 106.16C125.825 106.08 125.925 106.16 125.925 106.4V106.94C125.925 107.1 125.825 107.22 125.625 107.3C124.425 107.42 123.185 107.48 121.905 107.48C119.065 107.48 116.865 106.64 115.305 104.96C113.745 103.24 112.965 100.9 112.965 97.94V68.72C112.965 68.52 113.065 68.42 113.265 68.42H113.865C114.065 68.42 114.165 68.52 114.165 68.72V76.22H124.845C125.045 76.22 125.145 76.32 125.145 76.52V77.06C125.145 77.26 125.045 77.36 124.845 77.36H114.165V97.94ZM131.976 107H131.376C131.176 107 131.076 106.9 131.076 106.7V76.52C131.076 76.32 131.176 76.22 131.376 76.22H131.976C132.176 76.22 132.276 76.32 132.276 76.52V106.7C132.276 106.9 132.176 107 131.976 107ZM131.676 66.8C132.476 66.8 132.876 67.2 132.876 68C132.876 68.8 132.476 69.2 131.676 69.2C130.876 69.2 130.476 68.8 130.476 68C130.476 67.2 130.876 66.8 131.676 66.8ZM165.2 96.44C165.2 99.68 164.12 102.36 161.96 104.48C159.84 106.56 156.82 107.6 152.9 107.6C148.98 107.6 145.94 106.56 143.78 104.48C141.66 102.36 140.6 99.68 140.6 96.44V86.72C140.6 83.52 141.68 80.88 143.84 78.8C146 76.68 149.02 75.62 152.9 75.62C156.82 75.62 159.84 76.68 161.96 78.8C164.12 80.88 165.2 83.52 165.2 86.72V96.44ZM141.8 96.44C141.8 99.36 142.76 101.76 144.68 103.64C146.6 105.52 149.34 106.46 152.9 106.46C156.5 106.46 159.24 105.52 161.12 103.64C163.04 101.76 164 99.36 164 96.44V86.72C164 83.84 163.04 81.46 161.12 79.58C159.24 77.7 156.5 76.76 152.9 76.76C149.34 76.76 146.6 77.7 144.68 79.58C142.76 81.46 141.8 83.84 141.8 86.72V96.44ZM174.396 107H173.796C173.596 107 173.496 106.9 173.496 106.7V78.26C173.496 78.06 173.576 77.94 173.736 77.9C177.096 76.38 180.696 75.62 184.536 75.62C188.536 75.62 191.616 76.64 193.776 78.68C195.976 80.72 197.076 83.68 197.076 87.56V106.7C197.076 106.9 196.976 107 196.776 107H196.176C195.976 107 195.876 106.9 195.876 106.7V87.56C195.876 84 194.896 81.32 192.936 79.52C190.976 77.68 188.176 76.76 184.536 76.76C181.136 76.76 177.856 77.4 174.696 78.68V106.7C174.696 106.9 174.596 107 174.396 107ZM211.827 98.54H211.227C211.027 98.54 210.927 98.44 210.927 98.24V94.1C210.927 92.3 211.307 90.7 212.067 89.3C212.827 87.9 213.727 86.72 214.767 85.76C215.847 84.8 216.927 83.84 218.007 82.88C219.087 81.92 220.007 80.74 220.767 79.34C221.527 77.94 221.907 76.34 221.907 74.54C221.907 71.78 221.107 69.44 219.507 67.52C217.907 65.6 215.467 64.64 212.187 64.64C208.267 64.64 204.847 66.24 201.927 69.44C201.767 69.6 201.627 69.58 201.507 69.38L201.147 68.96C201.067 68.8 201.087 68.66 201.207 68.54C204.207 65.18 207.867 63.5 212.187 63.5C215.707 63.5 218.407 64.54 220.287 66.62C222.167 68.66 223.107 71.3 223.107 74.54C223.107 76.46 222.727 78.16 221.967 79.64C221.207 81.12 220.287 82.36 219.207 83.36C218.127 84.32 217.047 85.28 215.967 86.24C214.927 87.16 214.027 88.28 213.267 89.6C212.507 90.92 212.127 92.42 212.127 94.1V98.24C212.127 98.44 212.027 98.54 211.827 98.54ZM211.527 104.72C212.327 104.72 212.727 105.12 212.727 105.92C212.727 106.72 212.327 107.12 211.527 107.12C210.727 107.12 210.327 106.72 210.327 105.92C210.327 105.12 210.727 104.72 211.527 104.72Z" fill="white"/>
</g>
<defs>
<filter id="filter0_d" x="0.473389" y="0.5" width="398.272" height="115.1" filterUnits="userSpaceOnUse" color-interpolation-filters="sRGB">
<feFlood flood-opacity="0" result="BackgroundImageFix"/>
<feColorMatrix in="SourceAlpha" type="matrix" values="0 0 0 0 0 0 0 0 0 0 0 0 0 0 0 0 0 0 127 0"/>
<feOffset dy="4"/>
<feGaussianBlur stdDeviation="2"/>
<feColorMatrix type="matrix" values="0 0 0 0 0 0 0 0 0 0 0 0 0 0 0 0 0 0 0.25 0"/>
<feBlend mode="normal" in2="BackgroundImageFix" result="effect1_dropShadow"/>
<feBlend mode="normal" in="SourceGraphic" in2="effect1_dropShadow" result="shape"/>
</filter>
</defs>
</svg>
