<svg width="283" height="75" viewBox="0 0 283 75" fill="none" xmlns="http://www.w3.org/2000/svg">
<path d="M66.4702 33H49.7752C49.5652 33 49.4602 32.91 49.4602 32.73V1.095C49.4602 0.914998 49.5652 0.824998 49.7752 0.824998H50.7202C50.9002 0.824998 50.9902 0.914998 50.9902 1.095V31.605H66.4702C66.6502 31.605 66.7402 31.695 66.7402 31.875V32.73C66.7402 32.91 66.6502 33 66.4702 33ZM73.2265 17.295V31.605H90.2365C90.4165 31.605 90.5065 31.695 90.5065 31.875V32.73C90.5065 32.91 90.4165 33 90.2365 33H72.0115C71.8015 33 71.6965 32.91 71.6965 32.73V1.095C71.6965 0.914998 71.8015 0.824998 72.0115 0.824998H89.5615C89.7415 0.824998 89.8315 0.914998 89.8315 1.095V1.95C89.8315 2.13 89.7415 2.22 89.5615 2.22H73.2265V15.9H88.6165C88.8265 15.9 88.9315 15.99 88.9315 16.17V17.025C88.9315 17.205 88.8265 17.295 88.6165 17.295H73.2265ZM93.498 0.824998H115.863C116.073 0.824998 116.178 0.914998 116.178 1.095V1.95C116.178 2.13 116.073 2.22 115.863 2.22H105.378V32.73C105.378 32.91 105.288 33 105.108 33H104.163C103.953 33 103.848 32.91 103.848 32.73V2.22H93.498C93.318 2.22 93.228 2.13 93.228 1.95V1.095C93.228 0.914998 93.318 0.824998 93.498 0.824998ZM122.801 1.14L120.416 8.655C120.356 8.805 120.266 8.88 120.146 8.88H119.471C119.201 8.88 119.111 8.775 119.201 8.565L121.181 1.05C121.271 0.899998 121.376 0.824998 121.496 0.824998H122.576C122.816 0.824998 122.891 0.929999 122.801 1.14ZM149.206 24.945C149.206 27.645 148.201 29.745 146.191 31.245C144.211 32.715 141.541 33.45 138.181 33.45C135.961 33.45 133.996 33.12 132.286 32.46C130.606 31.8 128.881 30.72 127.111 29.22C126.991 29.1 126.976 28.965 127.066 28.815L127.606 28.14C127.756 27.99 127.891 27.96 128.011 28.05C131.191 30.69 134.581 32.01 138.181 32.01C141.061 32.01 143.356 31.41 145.066 30.21C146.806 28.98 147.676 27.225 147.676 24.945C147.676 22.905 146.956 21.33 145.516 20.22C144.076 19.11 141.526 18.135 137.866 17.295C134.296 16.485 131.626 15.36 129.856 13.92C128.086 12.45 127.201 10.53 127.201 8.16C127.201 5.61 128.191 3.675 130.171 2.355C132.181 1.035 134.716 0.374999 137.776 0.374999C141.736 0.374999 145.231 1.575 148.261 3.975C148.441 4.065 148.456 4.185 148.306 4.335L147.856 5.055C147.736 5.205 147.601 5.235 147.451 5.145C144.721 2.955 141.436 1.83 137.596 1.77C135.046 1.77 132.931 2.325 131.251 3.435C129.571 4.545 128.731 6.15 128.731 8.25C128.731 10.23 129.481 11.805 130.981 12.975C132.511 14.115 134.911 15.075 138.181 15.855C142.201 16.815 145.036 17.97 146.686 19.32C148.366 20.67 149.206 22.545 149.206 24.945ZM187.37 29.13C184.37 32.01 180.725 33.45 176.435 33.45C172.955 33.45 170.21 32.475 168.2 30.525C166.22 28.545 165.23 25.95 165.23 22.74V11.04C165.23 7.83 166.205 5.25 168.155 3.3C170.135 1.35 172.85 0.374999 176.3 0.374999C180.23 0.374999 183.68 1.545 186.65 3.885C186.86 3.975 186.875 4.11 186.695 4.29L186.2 4.965C186.11 5.115 185.975 5.145 185.795 5.055C183.095 2.865 179.93 1.77 176.3 1.77C173.24 1.77 170.87 2.625 169.19 4.335C167.54 6.015 166.715 8.25 166.715 11.04V22.74C166.715 25.53 167.555 27.78 169.235 29.49C170.915 31.17 173.315 32.01 176.435 32.01C180.155 32.01 183.35 30.81 186.02 28.41V17.79H176.57C176.39 17.79 176.3 17.7 176.3 17.52V16.665C176.3 16.485 176.39 16.395 176.57 16.395H187.235C187.415 16.395 187.505 16.485 187.505 16.665V28.77C187.505 28.92 187.46 29.04 187.37 29.13ZM196.405 17.295V31.605H213.415C213.595 31.605 213.685 31.695 213.685 31.875V32.73C213.685 32.91 213.595 33 213.415 33H195.19C194.98 33 194.875 32.91 194.875 32.73V1.095C194.875 0.914998 194.98 0.824998 195.19 0.824998H212.74C212.92 0.824998 213.01 0.914998 213.01 1.095V1.95C213.01 2.13 212.92 2.22 212.74 2.22H196.405V15.9H211.795C212.005 15.9 212.11 15.99 212.11 16.17V17.025C212.11 17.205 212.005 17.295 211.795 17.295H196.405ZM216.677 0.824998H239.042C239.252 0.824998 239.357 0.914998 239.357 1.095V1.95C239.357 2.13 239.252 2.22 239.042 2.22H228.557V32.73C228.557 32.91 228.467 33 228.287 33H227.342C227.132 33 227.027 32.91 227.027 32.73V2.22H216.677C216.497 2.22 216.407 2.13 216.407 1.95V1.095C216.407 0.914998 216.497 0.824998 216.677 0.824998ZM12.6272 74H11.6822C11.5022 74 11.4122 73.91 11.4122 73.73V61.265L0.567188 42.185C0.477188 41.945 0.552188 41.825 0.792188 41.825H1.87219C2.05219 41.825 2.15719 41.885 2.18719 42.005L12.1772 59.78L22.1672 42.005C22.1972 41.885 22.3172 41.825 22.5272 41.825H23.5622C23.8022 41.825 23.8772 41.945 23.7872 42.185L12.9422 61.265V73.73C12.9422 73.91 12.8372 74 12.6272 74ZM50.4008 63.92C50.4008 66.98 49.3208 69.5 47.1608 71.48C45.0008 73.46 42.1808 74.45 38.7008 74.45C35.1908 74.45 32.3558 73.46 30.1958 71.48C28.0358 69.5 26.9558 66.98 26.9558 63.92V52.265C26.9558 49.025 28.0208 46.4 30.1508 44.39C32.3108 42.38 35.1608 41.375 38.7008 41.375C42.2108 41.375 45.0308 42.38 47.1608 44.39C49.3208 46.4 50.4008 49.025 50.4008 52.265V63.92ZM28.4408 63.92C28.4408 66.59 29.3708 68.78 31.2308 70.49C33.1208 72.17 35.6108 73.01 38.7008 73.01C41.7608 73.01 44.2208 72.17 46.0808 70.49C47.9708 68.78 48.9158 66.59 48.9158 63.92V52.265C48.9158 49.415 47.9858 47.12 46.1258 45.38C44.2958 43.64 41.8208 42.77 38.7008 42.77C35.5808 42.77 33.0908 43.64 31.2308 45.38C29.3708 47.12 28.4408 49.415 28.4408 52.265V63.92ZM79.8326 63.155C79.8326 66.545 78.8426 69.26 76.8626 71.3C74.9126 73.34 72.2126 74.36 68.7626 74.36C65.3126 74.36 62.6126 73.34 60.6626 71.3C58.7126 69.26 57.7376 66.545 57.7376 63.155V42.095C57.7376 41.915 57.8426 41.825 58.0526 41.825H58.9976C59.1776 41.825 59.2676 41.915 59.2676 42.095V63.11C59.2676 66.14 60.0926 68.54 61.7426 70.31C63.3926 72.08 65.7326 72.965 68.7626 72.965C71.7926 72.965 74.1326 72.08 75.7826 70.31C77.4626 68.54 78.3026 66.14 78.3026 63.11V42.095C78.3026 41.915 78.3926 41.825 78.5726 41.825H79.5176C79.7276 41.825 79.8326 41.915 79.8326 42.095V63.155ZM120.435 64.865C120.435 68.045 119.265 70.46 116.925 72.11C114.585 73.73 111.645 74.54 108.105 74.54C105.915 74.54 103.92 74.195 102.12 73.505C100.35 72.815 98.5199 71.72 96.6299 70.22C96.3299 69.92 96.2849 69.605 96.4949 69.275L98.7449 66.125C98.9849 65.795 99.2849 65.75 99.6449 65.99C102.675 68.18 105.57 69.32 108.33 69.41C110.13 69.41 111.66 69.035 112.92 68.285C114.21 67.505 114.855 66.395 114.855 64.955C114.855 64.175 114.675 63.515 114.315 62.975C113.955 62.405 113.385 61.94 112.605 61.58C111.825 61.22 111.09 60.95 110.4 60.77C109.74 60.56 108.795 60.335 107.565 60.095C100.275 58.565 96.6299 55.28 96.6299 50.24C96.6299 47.27 97.7549 45.035 100.005 43.535C102.285 42.035 105.165 41.285 108.645 41.285C112.215 41.285 115.74 42.47 119.22 44.84C119.61 45.08 119.67 45.38 119.4 45.74L117.24 48.845C117.03 49.205 116.715 49.25 116.295 48.98C113.745 47.33 111.06 46.46 108.24 46.37C106.32 46.37 104.82 46.73 103.74 47.45C102.66 48.14 102.12 49.1 102.12 50.33C102.12 50.9 102.24 51.41 102.48 51.86C102.72 52.28 103.005 52.64 103.335 52.94C103.695 53.21 104.205 53.48 104.865 53.75C105.525 53.99 106.125 54.185 106.665 54.335C107.235 54.485 108 54.665 108.96 54.875C110.04 55.115 110.94 55.34 111.66 55.55C112.41 55.76 113.265 56.045 114.225 56.405C115.215 56.765 116.04 57.185 116.7 57.665C117.36 58.145 117.99 58.715 118.59 59.375C119.22 60.035 119.685 60.83 119.985 61.76C120.285 62.69 120.435 63.725 120.435 64.865ZM123.105 41.825H146.64C147.09 41.825 147.315 42.05 147.315 42.5V46.19C147.315 46.61 147.09 46.82 146.64 46.82H137.595V73.325C137.595 73.775 137.385 74 136.965 74H132.825C132.405 74 132.195 73.775 132.195 73.325V46.82H123.105C122.655 46.82 122.43 46.61 122.43 46.19V42.5C122.43 42.05 122.655 41.825 123.105 41.825ZM150.49 74H146.08C145.57 74 145.39 73.745 145.54 73.235L156.34 42.365C156.49 42.005 156.73 41.825 157.06 41.825H162.19C162.52 41.825 162.76 42.005 162.91 42.365L173.71 73.235C173.86 73.745 173.68 74 173.17 74H168.76C168.34 74 168.085 73.82 167.995 73.46L165.79 66.665H153.46L151.255 73.46C151.135 73.82 150.88 74 150.49 74ZM159.535 47.765L154.99 61.76H164.26L159.715 47.765H159.535ZM200.829 74H195.744C195.414 74 195.159 73.85 194.979 73.55L187.104 62.255H183.099V73.325C183.099 73.775 182.889 74 182.469 74H178.329C177.909 74 177.699 73.775 177.699 73.325V42.5C177.699 42.05 177.909 41.825 178.329 41.825H188.769C192.459 41.825 195.324 42.74 197.364 44.57C199.434 46.37 200.469 48.875 200.469 52.085C200.469 54.545 199.809 56.6 198.489 58.25C197.199 59.9 195.369 61.04 192.999 61.67L201.234 73.19C201.564 73.73 201.429 74 200.829 74ZM188.769 46.82H183.099V57.395H188.769C190.869 57.395 192.414 56.975 193.404 56.135C194.424 55.265 194.934 53.93 194.934 52.13C194.934 50.3 194.424 48.965 193.404 48.125C192.414 47.255 190.869 46.82 188.769 46.82ZM203.481 41.825H227.016C227.466 41.825 227.691 42.05 227.691 42.5V46.19C227.691 46.61 227.466 46.82 227.016 46.82H217.971V73.325C217.971 73.775 217.761 74 217.341 74H213.201C212.781 74 212.571 73.775 212.571 73.325V46.82H203.481C203.031 46.82 202.806 46.61 202.806 46.19V42.5C202.806 42.05 203.031 41.825 203.481 41.825ZM237.372 60.14V69.05H251.817C252.267 69.05 252.492 69.26 252.492 69.68V73.325C252.492 73.775 252.267 74 251.817 74H232.557C232.137 74 231.927 73.775 231.927 73.325V42.5C231.927 42.05 232.137 41.825 232.557 41.825H251.187C251.637 41.825 251.862 42.05 251.862 42.5V46.145C251.862 46.565 251.637 46.775 251.187 46.775H237.372V55.19H250.017C250.467 55.19 250.692 55.415 250.692 55.865V59.465C250.692 59.915 250.467 60.14 250.017 60.14H237.372ZM270.084 74H258.924C258.504 74 258.294 73.775 258.294 73.325V42.5C258.294 42.05 258.504 41.825 258.924 41.825H270.084C273.894 41.825 276.864 42.845 278.994 44.885C281.154 46.895 282.234 49.835 282.234 53.705V62.255C282.234 66.065 281.154 68.975 278.994 70.985C276.864 72.995 273.894 74 270.084 74ZM263.739 46.82V68.915H270.084C274.434 68.915 276.609 66.71 276.609 62.3V53.66C276.609 49.1 274.434 46.82 270.084 46.82H263.739Z" fill="#E62D26"/>
</svg>
