<svg width="233" height="35" viewBox="0 0 233 35" fill="none" xmlns="http://www.w3.org/2000/svg">
<path d="M8.37556 10.624C7.3089 11.648 6.0129 12.16 4.48756 12.16C3.25023 12.16 2.27423 11.8133 1.55956 11.12C0.855563 10.416 0.503563 9.49333 0.503563 8.352V4.192C0.503563 3.05067 0.850229 2.13333 1.54356 1.44C2.24756 0.746666 3.2129 0.4 4.43956 0.4C5.8369 0.4 7.06356 0.816 8.11956 1.648C8.19423 1.68 8.19956 1.728 8.13556 1.792L7.95956 2.032C7.92756 2.08533 7.87956 2.096 7.81556 2.064C6.85556 1.28533 5.73023 0.896 4.43956 0.896C3.35156 0.896 2.5089 1.2 1.91156 1.808C1.3249 2.40533 1.03156 3.2 1.03156 4.192V8.352C1.03156 9.344 1.33023 10.144 1.92756 10.752C2.5249 11.3493 3.37823 11.648 4.48756 11.648C5.81023 11.648 6.94623 11.2213 7.89556 10.368V6.592H4.53556C4.47156 6.592 4.43956 6.56 4.43956 6.496V6.192C4.43956 6.128 4.47156 6.096 4.53556 6.096H8.32756C8.39156 6.096 8.42356 6.128 8.42356 6.192V10.496C8.42356 10.5493 8.40756 10.592 8.37556 10.624ZM16.7882 6.656V8.096C16.7882 8.16 16.7562 8.192 16.6922 8.192H10.9322V9.248C10.9322 9.99467 11.1882 10.592 11.7002 11.04C12.2229 11.4773 12.8629 11.696 13.6202 11.696C14.6015 11.696 15.5082 11.3227 16.3402 10.576C16.3935 10.544 16.4362 10.5493 16.4682 10.592L16.6442 10.8C16.6975 10.8533 16.6922 10.896 16.6282 10.928C15.7429 11.7493 14.7349 12.16 13.6042 12.16C12.7189 12.16 11.9669 11.8987 11.3482 11.376C10.7295 10.8427 10.4202 10.1333 10.4202 9.248V6.656C10.4202 5.70667 10.7082 4.96533 11.2842 4.432C11.8709 3.888 12.6442 3.616 13.6042 3.616C14.5642 3.616 15.3322 3.888 15.9082 4.432C16.4949 4.96533 16.7882 5.70667 16.7882 6.656ZM16.2762 6.656C16.2762 5.856 16.0309 5.232 15.5402 4.784C15.0602 4.32533 14.4149 4.096 13.6042 4.096C12.7829 4.096 12.1322 4.32 11.6522 4.768C11.1722 5.216 10.9322 5.84533 10.9322 6.656V7.744H16.2762V6.656ZM19.2816 9.52C19.2816 10.2027 19.4469 10.7307 19.7776 11.104C20.1189 11.4667 20.6042 11.648 21.2336 11.648C21.5536 11.648 21.8736 11.632 22.1936 11.6C22.2576 11.6 22.2896 11.632 22.2896 11.696V11.968C22.2896 12.032 22.2576 12.0693 22.1936 12.08C21.8842 12.112 21.5642 12.128 21.2336 12.128C20.4656 12.128 19.8629 11.904 19.4256 11.456C18.9882 10.9973 18.7696 10.3573 18.7696 9.536V1.808C18.7696 1.744 18.8016 1.712 18.8656 1.712H19.1696C19.2336 1.712 19.2709 1.744 19.2816 1.808V3.792H21.9856C22.0496 3.792 22.0816 3.824 22.0816 3.888V4.16C22.0816 4.23467 22.0496 4.272 21.9856 4.272H19.2816V9.52ZM24.1253 9.52C24.1253 10.2027 24.2906 10.7307 24.6213 11.104C24.9626 11.4667 25.448 11.648 26.0773 11.648C26.3973 11.648 26.7173 11.632 27.0373 11.6C27.1013 11.6 27.1333 11.632 27.1333 11.696V11.968C27.1333 12.032 27.1013 12.0693 27.0373 12.08C26.728 12.112 26.408 12.128 26.0773 12.128C25.3093 12.128 24.7066 11.904 24.2693 11.456C23.832 10.9973 23.6133 10.3573 23.6133 9.536V1.808C23.6133 1.744 23.6453 1.712 23.7093 1.712H24.0133C24.0773 1.712 24.1146 1.744 24.1253 1.808V3.792H26.8293C26.8933 3.792 26.9253 3.824 26.9253 3.888V4.16C26.9253 4.23467 26.8933 4.272 26.8293 4.272H24.1253V9.52ZM28.9371 12H28.6171C28.5531 12 28.5211 11.968 28.5211 11.904V3.888C28.5211 3.81333 28.5531 3.776 28.6171 3.776H28.9371C29.0011 3.776 29.0331 3.81333 29.0331 3.888V11.904C29.0331 11.968 29.0011 12 28.9371 12ZM29.1931 1.568C29.1931 1.68533 29.1504 1.78133 29.0651 1.856C28.9904 1.93067 28.8944 1.968 28.7771 1.968C28.6597 1.968 28.5584 1.93067 28.4731 1.856C28.3984 1.78133 28.3611 1.68533 28.3611 1.568C28.3611 1.44 28.3984 1.33867 28.4731 1.264C28.5584 1.18933 28.6597 1.152 28.7771 1.152C28.8944 1.152 28.9904 1.18933 29.0651 1.264C29.1504 1.33867 29.1931 1.44 29.1931 1.568ZM31.8898 12H31.5698C31.5058 12 31.4738 11.968 31.4738 11.904V4.352C31.4738 4.29867 31.5005 4.256 31.5538 4.224C32.4605 3.81867 33.4311 3.616 34.4658 3.616C35.5431 3.616 36.3751 3.888 36.9618 4.432C37.5591 4.976 37.8578 5.78133 37.8578 6.848V11.904C37.8578 11.968 37.8258 12 37.7618 12H37.4578C37.3831 12 37.3458 11.968 37.3458 11.904V6.864C37.3458 5.94667 37.0951 5.25867 36.5938 4.8C36.1031 4.33067 35.3938 4.096 34.4658 4.096C33.6125 4.096 32.7858 4.25067 31.9858 4.56V11.904C31.9858 11.968 31.9538 12 31.8898 12ZM46.2718 12.24C46.2718 13.1467 46.0105 13.8667 45.4878 14.4C44.9651 14.9333 44.1811 15.2 43.1358 15.2C42.0158 15.2 41.0131 14.7733 40.1278 13.92C40.0958 13.888 40.0958 13.8453 40.1278 13.792L40.2878 13.568C40.3305 13.5147 40.3731 13.5093 40.4158 13.552C41.2478 14.3307 42.1545 14.72 43.1358 14.72C44.0318 14.72 44.6931 14.496 45.1198 14.048C45.5571 13.6107 45.7705 13.0027 45.7598 12.224V11.104C44.9918 11.4987 44.1705 11.696 43.2958 11.696C42.2398 11.696 41.4131 11.424 40.8158 10.88C40.2185 10.336 39.9198 9.54667 39.9198 8.512V6.784C39.9198 5.71733 40.2185 4.92267 40.8158 4.4C41.4131 3.87733 42.2398 3.616 43.2958 3.616C44.3518 3.616 45.3171 3.808 46.1918 4.192C46.2451 4.20267 46.2718 4.24 46.2718 4.304V12.24ZM40.4318 8.512C40.4318 10.3147 41.3918 11.216 43.3118 11.216C44.1865 11.216 45.0025 11.0133 45.7598 10.608V4.512C44.9598 4.23467 44.1331 4.096 43.2798 4.096C41.3811 4.096 40.4318 4.992 40.4318 6.784V8.512ZM58.0411 9.856C58.0411 10.5493 57.7744 11.1093 57.2411 11.536C56.7184 11.952 55.9771 12.16 55.0171 12.16C53.8651 12.16 52.8517 11.8187 51.9771 11.136C51.9131 11.104 51.9024 11.056 51.9451 10.992L52.1051 10.752C52.1477 10.6987 52.1904 10.6933 52.2331 10.736C53.0864 11.376 54.0144 11.696 55.0171 11.696C55.7744 11.696 56.3824 11.536 56.8411 11.216C57.2997 10.896 57.5291 10.448 57.5291 9.872C57.5291 9.616 57.4757 9.392 57.3691 9.2C57.2624 9.008 57.1397 8.85333 57.0011 8.736C56.8624 8.61867 56.6597 8.512 56.3931 8.416C56.1264 8.32 55.9077 8.25067 55.7371 8.208C55.5771 8.16533 55.3371 8.112 55.0171 8.048C54.7077 7.984 54.4357 7.92 54.2011 7.856C53.9664 7.792 53.7051 7.696 53.4171 7.568C53.1397 7.44 52.9104 7.296 52.7291 7.136C52.5477 6.976 52.3931 6.77333 52.2651 6.528C52.1371 6.28267 52.0731 6.00533 52.0731 5.696C52.0731 5.056 52.3344 4.54933 52.8571 4.176C53.3904 3.80267 54.0677 3.616 54.8891 3.616C55.8704 3.616 56.8091 3.87733 57.7051 4.4C57.7584 4.432 57.7691 4.47467 57.7371 4.528L57.5931 4.768C57.5717 4.832 57.5291 4.84267 57.4651 4.8C56.6331 4.33067 55.7691 4.096 54.8731 4.096C54.1904 4.096 53.6357 4.24 53.2091 4.528C52.7824 4.816 52.5691 5.20533 52.5691 5.696C52.5691 5.99467 52.6384 6.256 52.7771 6.48C52.9157 6.69333 53.1184 6.86933 53.3851 7.008C53.6624 7.14667 53.9237 7.25867 54.1691 7.344C54.4251 7.41867 54.7397 7.49333 55.1131 7.568C55.4757 7.64267 55.7637 7.712 55.9771 7.776C56.2011 7.82933 56.4571 7.92 56.7451 8.048C57.0437 8.16533 57.2731 8.29867 57.4331 8.448C57.6037 8.58667 57.7477 8.77867 57.8651 9.024C57.9824 9.26933 58.0411 9.54667 58.0411 9.856ZM60.3441 9.52C60.3441 10.2027 60.5094 10.7307 60.8401 11.104C61.1814 11.4667 61.6667 11.648 62.2961 11.648C62.6161 11.648 62.9361 11.632 63.2561 11.6C63.3201 11.6 63.3521 11.632 63.3521 11.696V11.968C63.3521 12.032 63.3201 12.0693 63.2561 12.08C62.9467 12.112 62.6267 12.128 62.2961 12.128C61.5281 12.128 60.9254 11.904 60.4881 11.456C60.0507 10.9973 59.8321 10.3573 59.8321 9.536V1.808C59.8321 1.744 59.8641 1.712 59.9281 1.712H60.2321C60.2961 1.712 60.3334 1.744 60.3441 1.808V3.792H63.0481C63.1121 3.792 63.1441 3.824 63.1441 3.888V4.16C63.1441 4.23467 63.1121 4.272 63.0481 4.272H60.3441V9.52ZM64.5638 4.432C65.3425 3.888 66.2971 3.616 67.4278 3.616C68.4091 3.616 69.1451 3.87733 69.6358 4.4C70.1371 4.912 70.3878 5.632 70.3878 6.56V11.488C70.3878 11.552 70.3611 11.5893 70.3078 11.6C69.4331 11.9733 68.4678 12.16 67.4118 12.16C66.4518 12.16 65.6625 11.9307 65.0438 11.472C64.4358 11.0133 64.1318 10.3893 64.1318 9.6C64.1318 8.8 64.4198 8.18667 64.9958 7.76C65.5718 7.32267 66.3771 7.104 67.4118 7.104C68.1585 7.104 68.9798 7.20533 69.8758 7.408V6.576C69.8758 4.92267 69.0545 4.096 67.4118 4.096C66.4518 4.096 65.5985 4.33067 64.8518 4.8C64.7985 4.832 64.7505 4.82667 64.7078 4.784L64.5638 4.56C64.5425 4.496 64.5425 4.45333 64.5638 4.432ZM64.6438 9.6C64.6438 10.2293 64.8998 10.736 65.4118 11.12C65.9238 11.504 66.5905 11.696 67.4118 11.696C68.2651 11.696 69.0865 11.5467 69.8758 11.248V7.856C69.0438 7.664 68.2225 7.568 67.4118 7.568C66.5158 7.568 65.8278 7.744 65.3478 8.096C64.8785 8.448 64.6438 8.94933 64.6438 9.6ZM73.1398 12H72.8198C72.7558 12 72.7238 11.968 72.7238 11.904V4.288C72.7238 4.23467 72.7505 4.19733 72.8038 4.176C73.5825 3.80267 74.4785 3.616 75.4918 3.616C75.9505 3.616 76.4891 3.664 77.1078 3.76C77.1718 3.77067 77.2038 3.808 77.2038 3.872V4.144C77.2038 4.21867 77.1718 4.24533 77.1078 4.224C76.5745 4.13867 76.0465 4.096 75.5238 4.096C74.7025 4.096 73.9398 4.23467 73.2358 4.512V11.904C73.2358 11.968 73.2038 12 73.1398 12ZM79.1566 9.52C79.1566 10.2027 79.3219 10.7307 79.6526 11.104C79.9939 11.4667 80.4792 11.648 81.1086 11.648C81.4286 11.648 81.7486 11.632 82.0686 11.6C82.1326 11.6 82.1646 11.632 82.1646 11.696V11.968C82.1646 12.032 82.1326 12.0693 82.0686 12.08C81.7592 12.112 81.4392 12.128 81.1086 12.128C80.3406 12.128 79.7379 11.904 79.3006 11.456C78.8632 10.9973 78.6446 10.3573 78.6446 9.536V1.808C78.6446 1.744 78.6766 1.712 78.7406 1.712H79.0446C79.1086 1.712 79.1459 1.744 79.1566 1.808V3.792H81.8606C81.9246 3.792 81.9566 3.824 81.9566 3.888V4.16C81.9566 4.23467 81.9246 4.272 81.8606 4.272H79.1566V9.52ZM89.4913 6.656V8.096C89.4913 8.16 89.4593 8.192 89.3953 8.192H83.6353V9.248C83.6353 9.99467 83.8913 10.592 84.4033 11.04C84.926 11.4773 85.566 11.696 86.3233 11.696C87.3046 11.696 88.2113 11.3227 89.0433 10.576C89.0966 10.544 89.1393 10.5493 89.1713 10.592L89.3473 10.8C89.4006 10.8533 89.3953 10.896 89.3313 10.928C88.446 11.7493 87.438 12.16 86.3073 12.16C85.422 12.16 84.67 11.8987 84.0513 11.376C83.4326 10.8427 83.1233 10.1333 83.1233 9.248V6.656C83.1233 5.70667 83.4113 4.96533 83.9873 4.432C84.574 3.888 85.3473 3.616 86.3073 3.616C87.2673 3.616 88.0353 3.888 88.6113 4.432C89.198 4.96533 89.4913 5.70667 89.4913 6.656ZM88.9793 6.656C88.9793 5.856 88.734 5.232 88.2433 4.784C87.7633 4.32533 87.118 4.096 86.3073 4.096C85.486 4.096 84.8353 4.32 84.3553 4.768C83.8753 5.216 83.6353 5.84533 83.6353 6.656V7.744H88.9793V6.656ZM97.0887 4.352V0.655999C97.0887 0.591999 97.1207 0.559999 97.1847 0.559999H97.4887C97.5634 0.559999 97.6007 0.591999 97.6007 0.655999V11.488C97.6007 11.5413 97.574 11.5787 97.5207 11.6C96.6034 11.9733 95.6327 12.16 94.6087 12.16C93.5314 12.16 92.694 11.8773 92.0967 11.312C91.51 10.7467 91.2167 9.89333 91.2167 8.752V7.04C91.2167 5.89867 91.51 5.04533 92.0967 4.48C92.6834 3.904 93.5154 3.616 94.5927 3.616C95.4994 3.616 96.3314 3.86133 97.0887 4.352ZM91.7287 8.752C91.7287 10.7147 92.6887 11.696 94.6087 11.696C95.4514 11.696 96.278 11.552 97.0887 11.264V4.864C96.342 4.352 95.5154 4.096 94.6087 4.096C92.6887 4.096 91.7287 5.07733 91.7287 7.04V8.752ZM104.265 12H103.945C103.881 12 103.849 11.968 103.849 11.904V3.888C103.849 3.81333 103.881 3.776 103.945 3.776H104.265C104.329 3.776 104.361 3.81333 104.361 3.888V11.904C104.361 11.968 104.329 12 104.265 12ZM104.521 1.568C104.521 1.68533 104.479 1.78133 104.393 1.856C104.319 1.93067 104.223 1.968 104.105 1.968C103.988 1.968 103.887 1.93067 103.801 1.856C103.727 1.78133 103.689 1.68533 103.689 1.568C103.689 1.44 103.727 1.33867 103.801 1.264C103.887 1.18933 103.988 1.152 104.105 1.152C104.223 1.152 104.319 1.18933 104.393 1.264C104.479 1.33867 104.521 1.44 104.521 1.568ZM112.338 9.856C112.338 10.5493 112.071 11.1093 111.538 11.536C111.015 11.952 110.274 12.16 109.314 12.16C108.162 12.16 107.149 11.8187 106.274 11.136C106.21 11.104 106.199 11.056 106.242 10.992L106.402 10.752C106.445 10.6987 106.487 10.6933 106.53 10.736C107.383 11.376 108.311 11.696 109.314 11.696C110.071 11.696 110.679 11.536 111.138 11.216C111.597 10.896 111.826 10.448 111.826 9.872C111.826 9.616 111.773 9.392 111.666 9.2C111.559 9.008 111.437 8.85333 111.298 8.736C111.159 8.61867 110.957 8.512 110.69 8.416C110.423 8.32 110.205 8.25067 110.034 8.208C109.874 8.16533 109.634 8.112 109.314 8.048C109.005 7.984 108.733 7.92 108.498 7.856C108.263 7.792 108.002 7.696 107.714 7.568C107.437 7.44 107.207 7.296 107.026 7.136C106.845 6.976 106.69 6.77333 106.562 6.528C106.434 6.28267 106.37 6.00533 106.37 5.696C106.37 5.056 106.631 4.54933 107.154 4.176C107.687 3.80267 108.365 3.616 109.186 3.616C110.167 3.616 111.106 3.87733 112.002 4.4C112.055 4.432 112.066 4.47467 112.034 4.528L111.89 4.768C111.869 4.832 111.826 4.84267 111.762 4.8C110.93 4.33067 110.066 4.096 109.17 4.096C108.487 4.096 107.933 4.24 107.506 4.528C107.079 4.816 106.866 5.20533 106.866 5.696C106.866 5.99467 106.935 6.256 107.074 6.48C107.213 6.69333 107.415 6.86933 107.682 7.008C107.959 7.14667 108.221 7.25867 108.466 7.344C108.722 7.41867 109.037 7.49333 109.41 7.568C109.773 7.64267 110.061 7.712 110.274 7.776C110.498 7.82933 110.754 7.92 111.042 8.048C111.341 8.16533 111.57 8.29867 111.73 8.448C111.901 8.58667 112.045 8.77867 112.162 9.024C112.279 9.26933 112.338 9.54667 112.338 9.856ZM126.262 12.336L126.07 12.528C126.027 12.5707 125.979 12.5653 125.926 12.512L124.79 11.328C124 11.8827 123.099 12.16 122.086 12.16C120.848 12.16 119.84 11.8027 119.062 11.088C118.294 10.3627 117.91 9.46133 117.91 8.384V4.272C117.91 3.13067 118.288 2.20267 119.046 1.488C119.814 0.762666 120.827 0.4 122.086 0.4C123.334 0.4 124.336 0.762666 125.094 1.488C125.862 2.20267 126.246 3.13067 126.246 4.272V8.384C126.246 9.45067 125.878 10.3253 125.142 11.008L126.262 12.192C126.304 12.2347 126.304 12.2827 126.262 12.336ZM118.438 8.384C118.438 9.32267 118.774 10.1067 119.446 10.736C120.118 11.3547 120.998 11.664 122.086 11.664C122.95 11.664 123.728 11.4187 124.422 10.928L122.55 8.976C122.518 8.92267 122.518 8.87467 122.55 8.832L122.742 8.64C122.784 8.59733 122.832 8.59733 122.886 8.64L124.774 10.624C125.403 10.016 125.718 9.26933 125.718 8.384V4.272C125.718 3.26933 125.387 2.45867 124.726 1.84C124.064 1.21067 123.184 0.896 122.086 0.896C120.976 0.896 120.091 1.21067 119.43 1.84C118.768 2.45867 118.438 3.26933 118.438 4.272V8.384ZM134.438 3.776H134.742C134.806 3.776 134.838 3.81333 134.838 3.888V11.424C134.838 11.4987 134.811 11.5413 134.758 11.552C133.883 11.9573 132.934 12.16 131.91 12.16C130.865 12.16 130.049 11.888 129.462 11.344C128.875 10.7893 128.582 9.984 128.582 8.928V3.888C128.582 3.81333 128.614 3.776 128.678 3.776H128.998C129.062 3.776 129.094 3.81333 129.094 3.888V8.928C129.094 9.84533 129.334 10.5387 129.814 11.008C130.305 11.4667 131.003 11.696 131.91 11.696C132.689 11.696 133.494 11.536 134.326 11.216V3.888C134.326 3.81333 134.363 3.776 134.438 3.776ZM137.703 12H137.383C137.319 12 137.287 11.968 137.287 11.904V3.888C137.287 3.81333 137.319 3.776 137.383 3.776H137.703C137.767 3.776 137.799 3.81333 137.799 3.888V11.904C137.799 11.968 137.767 12 137.703 12ZM137.959 1.568C137.959 1.68533 137.916 1.78133 137.831 1.856C137.756 1.93067 137.66 1.968 137.543 1.968C137.425 1.968 137.324 1.93067 137.239 1.856C137.164 1.78133 137.127 1.68533 137.127 1.568C137.127 1.44 137.164 1.33867 137.239 1.264C137.324 1.18933 137.425 1.152 137.543 1.152C137.66 1.152 137.756 1.18933 137.831 1.264C137.916 1.33867 137.959 1.44 137.959 1.568ZM145.919 11.168C145.077 11.8293 144.149 12.16 143.135 12.16C142.165 12.16 141.391 11.8827 140.815 11.328C140.239 10.7627 139.951 10.0533 139.951 9.2V6.576C139.951 5.72267 140.239 5.01867 140.815 4.464C141.391 3.89867 142.165 3.616 143.135 3.616C144.053 3.616 144.906 3.89867 145.695 4.464C145.749 4.50667 145.759 4.55467 145.727 4.608L145.583 4.832C145.53 4.87467 145.482 4.88 145.439 4.848C144.735 4.34667 143.962 4.096 143.119 4.096C142.287 4.096 141.637 4.33067 141.167 4.8C140.698 5.26933 140.463 5.86133 140.463 6.576V9.2C140.463 9.91467 140.698 10.512 141.167 10.992C141.647 11.4613 142.298 11.696 143.119 11.696C143.994 11.696 144.837 11.3973 145.647 10.8C145.711 10.7573 145.759 10.7627 145.791 10.816L145.951 11.024C145.994 11.088 145.983 11.136 145.919 11.168ZM153.774 12H153.358C153.304 12 153.262 11.9787 153.23 11.936L149.438 7.664L148.174 8.768V11.904C148.174 11.968 148.142 12 148.078 12H147.758C147.694 12 147.662 11.968 147.662 11.904V0.655999C147.662 0.591999 147.694 0.559999 147.758 0.559999H148.078C148.142 0.559999 148.174 0.591999 148.174 0.655999V8.128L153.038 3.824C153.059 3.792 153.102 3.776 153.166 3.776H153.598C153.694 3.776 153.71 3.81867 153.646 3.904L149.806 7.328L153.822 11.872C153.886 11.9573 153.87 12 153.774 12ZM158.892 4.432C159.671 3.888 160.625 3.616 161.756 3.616C162.737 3.616 163.473 3.87733 163.964 4.4C164.465 4.912 164.716 5.632 164.716 6.56V11.488C164.716 11.552 164.689 11.5893 164.636 11.6C163.761 11.9733 162.796 12.16 161.74 12.16C160.78 12.16 159.991 11.9307 159.372 11.472C158.764 11.0133 158.46 10.3893 158.46 9.6C158.46 8.8 158.748 8.18667 159.324 7.76C159.9 7.32267 160.705 7.104 161.74 7.104C162.487 7.104 163.308 7.20533 164.204 7.408V6.576C164.204 4.92267 163.383 4.096 161.74 4.096C160.78 4.096 159.927 4.33067 159.18 4.8C159.127 4.832 159.079 4.82667 159.036 4.784L158.892 4.56C158.871 4.496 158.871 4.45333 158.892 4.432ZM158.972 9.6C158.972 10.2293 159.228 10.736 159.74 11.12C160.252 11.504 160.919 11.696 161.74 11.696C162.593 11.696 163.415 11.5467 164.204 11.248V7.856C163.372 7.664 162.551 7.568 161.74 7.568C160.844 7.568 160.156 7.744 159.676 8.096C159.207 8.448 158.972 8.94933 158.972 9.6ZM167.468 12H167.148C167.084 12 167.052 11.968 167.052 11.904V4.352C167.052 4.29867 167.079 4.256 167.132 4.224C168.039 3.81867 169.009 3.616 170.044 3.616C171.121 3.616 171.953 3.888 172.54 4.432C173.137 4.976 173.436 5.78133 173.436 6.848V11.904C173.436 11.968 173.404 12 173.34 12H173.036C172.961 12 172.924 11.968 172.924 11.904V6.864C172.924 5.94667 172.673 5.25867 172.172 4.8C171.681 4.33067 170.972 4.096 170.044 4.096C169.191 4.096 168.364 4.25067 167.564 4.56V11.904C167.564 11.968 167.532 12 167.468 12ZM181.37 4.352V0.655999C181.37 0.591999 181.402 0.559999 181.466 0.559999H181.77C181.845 0.559999 181.882 0.591999 181.882 0.655999V11.488C181.882 11.5413 181.855 11.5787 181.802 11.6C180.885 11.9733 179.914 12.16 178.89 12.16C177.813 12.16 176.975 11.8773 176.378 11.312C175.791 10.7467 175.498 9.89333 175.498 8.752V7.04C175.498 5.89867 175.791 5.04533 176.378 4.48C176.965 3.904 177.797 3.616 178.874 3.616C179.781 3.616 180.613 3.86133 181.37 4.352ZM176.01 8.752C176.01 10.7147 176.97 11.696 178.89 11.696C179.733 11.696 180.559 11.552 181.37 11.264V4.864C180.623 4.352 179.797 4.096 178.89 4.096C176.97 4.096 176.01 5.07733 176.01 7.04V8.752ZM193.65 9.856C193.65 10.5493 193.384 11.1093 192.85 11.536C192.328 11.952 191.586 12.16 190.626 12.16C189.474 12.16 188.461 11.8187 187.586 11.136C187.522 11.104 187.512 11.056 187.554 10.992L187.714 10.752C187.757 10.6987 187.8 10.6933 187.842 10.736C188.696 11.376 189.624 11.696 190.626 11.696C191.384 11.696 191.992 11.536 192.45 11.216C192.909 10.896 193.138 10.448 193.138 9.872C193.138 9.616 193.085 9.392 192.978 9.2C192.872 9.008 192.749 8.85333 192.61 8.736C192.472 8.61867 192.269 8.512 192.002 8.416C191.736 8.32 191.517 8.25067 191.346 8.208C191.186 8.16533 190.946 8.112 190.626 8.048C190.317 7.984 190.045 7.92 189.81 7.856C189.576 7.792 189.314 7.696 189.026 7.568C188.749 7.44 188.52 7.296 188.338 7.136C188.157 6.976 188.002 6.77333 187.874 6.528C187.746 6.28267 187.682 6.00533 187.682 5.696C187.682 5.056 187.944 4.54933 188.466 4.176C189 3.80267 189.677 3.616 190.498 3.616C191.48 3.616 192.418 3.87733 193.314 4.4C193.368 4.432 193.378 4.47467 193.346 4.528L193.202 4.768C193.181 4.832 193.138 4.84267 193.074 4.8C192.242 4.33067 191.378 4.096 190.482 4.096C189.8 4.096 189.245 4.24 188.818 4.528C188.392 4.816 188.178 5.20533 188.178 5.696C188.178 5.99467 188.248 6.256 188.386 6.48C188.525 6.69333 188.728 6.86933 188.994 7.008C189.272 7.14667 189.533 7.25867 189.778 7.344C190.034 7.41867 190.349 7.49333 190.722 7.568C191.085 7.64267 191.373 7.712 191.586 7.776C191.81 7.82933 192.066 7.92 192.354 8.048C192.653 8.16533 192.882 8.29867 193.042 8.448C193.213 8.58667 193.357 8.77867 193.474 9.024C193.592 9.26933 193.65 9.54667 193.65 9.856ZM195.921 12H195.601C195.537 12 195.505 11.968 195.505 11.904V3.888C195.505 3.81333 195.537 3.776 195.601 3.776H195.921C195.985 3.776 196.017 3.81333 196.017 3.888V11.904C196.017 11.968 195.985 12 195.921 12ZM196.177 1.568C196.177 1.68533 196.135 1.78133 196.049 1.856C195.975 1.93067 195.879 1.968 195.761 1.968C195.644 1.968 195.543 1.93067 195.457 1.856C195.383 1.78133 195.345 1.68533 195.345 1.568C195.345 1.44 195.383 1.33867 195.457 1.264C195.543 1.18933 195.644 1.152 195.761 1.152C195.879 1.152 195.975 1.18933 196.049 1.264C196.135 1.33867 196.177 1.44 196.177 1.568ZM203.274 4.416C204.053 3.88267 204.906 3.616 205.834 3.616C206.794 3.616 207.552 3.88267 208.106 4.416C208.661 4.93867 208.938 5.68 208.938 6.64V11.904C208.938 11.968 208.901 12 208.826 12H208.522C208.458 12 208.426 11.968 208.426 11.904V6.624C208.426 5.81333 208.197 5.18933 207.738 4.752C207.28 4.31467 206.64 4.096 205.818 4.096C204.965 4.096 204.208 4.32533 203.546 4.784C203.845 5.28533 203.994 5.89867 203.994 6.624V11.904C203.994 11.968 203.962 12 203.898 12H203.578C203.514 12 203.482 11.968 203.482 11.904V6.624C203.482 4.93867 202.693 4.096 201.114 4.096C200.421 4.096 199.706 4.24533 198.97 4.544V11.904C198.97 11.968 198.938 12 198.874 12H198.554C198.49 12 198.458 11.968 198.458 11.904V4.336C198.458 4.28267 198.485 4.24 198.538 4.208C199.392 3.81333 200.245 3.616 201.098 3.616C202.037 3.616 202.762 3.88267 203.274 4.416ZM211.366 4.192C212.283 3.808 213.259 3.616 214.294 3.616C215.371 3.616 216.203 3.89867 216.79 4.464C217.387 5.02933 217.686 5.888 217.686 7.04V8.736C217.686 9.87733 217.393 10.736 216.806 11.312C216.219 11.8773 215.387 12.16 214.31 12.16C213.371 12.16 212.539 11.92 211.814 11.44V14.944C211.814 15.008 211.782 15.04 211.718 15.04H211.398C211.334 15.04 211.302 15.008 211.302 14.944V4.304C211.302 4.25067 211.323 4.21333 211.366 4.192ZM214.294 11.696C216.203 11.696 217.158 10.7093 217.158 8.736V7.04C217.158 5.06667 216.203 4.08 214.294 4.08C213.43 4.08 212.603 4.22933 211.814 4.528V10.912C212.582 11.4347 213.409 11.696 214.294 11.696ZM222.73 12.096C222.367 12.1387 222.058 12.16 221.802 12.16C220.447 12.16 219.77 11.28 219.77 9.52V0.655999C219.77 0.591999 219.802 0.559999 219.866 0.559999H220.186C220.25 0.559999 220.282 0.591999 220.282 0.655999V9.568C220.282 10.976 220.794 11.68 221.818 11.68C222.138 11.68 222.442 11.6587 222.73 11.616C222.794 11.616 222.826 11.6427 222.826 11.696V11.968C222.826 12.032 222.794 12.0747 222.73 12.096ZM229.991 6.656V8.096C229.991 8.16 229.959 8.192 229.895 8.192H224.135V9.248C224.135 9.99467 224.391 10.592 224.903 11.04C225.426 11.4773 226.066 11.696 226.823 11.696C227.805 11.696 228.711 11.3227 229.543 10.576C229.597 10.544 229.639 10.5493 229.671 10.592L229.847 10.8C229.901 10.8533 229.895 10.896 229.831 10.928C228.946 11.7493 227.938 12.16 226.807 12.16C225.922 12.16 225.17 11.8987 224.551 11.376C223.933 10.8427 223.623 10.1333 223.623 9.248V6.656C223.623 5.70667 223.911 4.96533 224.487 4.432C225.074 3.888 225.847 3.616 226.807 3.616C227.767 3.616 228.535 3.888 229.111 4.432C229.698 4.96533 229.991 5.70667 229.991 6.656ZM229.479 6.656C229.479 5.856 229.234 5.232 228.743 4.784C228.263 4.32533 227.618 4.096 226.807 4.096C225.986 4.096 225.335 4.32 224.855 4.768C224.375 5.216 224.135 5.84533 224.135 6.656V7.744H229.479V6.656ZM232.597 10.976L231.749 13.632C231.727 13.6853 231.69 13.712 231.637 13.712H231.397C231.322 13.712 231.29 13.6747 231.301 13.6L232.021 10.928C232.042 10.8747 232.079 10.848 232.133 10.848H232.517C232.591 10.848 232.618 10.8907 232.597 10.976ZM45.493 30.736C45.493 33.0187 44.485 34.16 42.469 34.16C41.3917 34.16 40.389 33.728 39.461 32.864C39.4077 32.832 39.4023 32.784 39.445 32.72L39.621 32.48C39.653 32.416 39.701 32.4107 39.765 32.464C40.6183 33.2533 41.5197 33.648 42.469 33.648C43.3117 33.648 43.9357 33.4133 44.341 32.944C44.757 32.4747 44.965 31.7387 44.965 30.736V22.656C44.965 22.592 44.997 22.56 45.061 22.56H45.397C45.461 22.56 45.493 22.592 45.493 22.656V30.736ZM53.9928 25.776H54.2968C54.3608 25.776 54.3928 25.8133 54.3928 25.888V33.424C54.3928 33.4987 54.3661 33.5413 54.3128 33.552C53.4381 33.9573 52.4888 34.16 51.4648 34.16C50.4194 34.16 49.6034 33.888 49.0168 33.344C48.4301 32.7893 48.1368 31.984 48.1368 30.928V25.888C48.1368 25.8133 48.1688 25.776 48.2328 25.776H48.5528C48.6168 25.776 48.6488 25.8133 48.6488 25.888V30.928C48.6488 31.8453 48.8888 32.5387 49.3688 33.008C49.8594 33.4667 50.5581 33.696 51.4648 33.696C52.2434 33.696 53.0488 33.536 53.8808 33.216V25.888C53.8808 25.8133 53.9181 25.776 53.9928 25.776ZM62.3614 31.856C62.3614 32.5493 62.0947 33.1093 61.5614 33.536C61.0387 33.952 60.2974 34.16 59.3374 34.16C58.1854 34.16 57.172 33.8187 56.2974 33.136C56.2334 33.104 56.2227 33.056 56.2654 32.992L56.4254 32.752C56.468 32.6987 56.5107 32.6933 56.5534 32.736C57.4067 33.376 58.3347 33.696 59.3374 33.696C60.0947 33.696 60.7027 33.536 61.1614 33.216C61.62 32.896 61.8494 32.448 61.8494 31.872C61.8494 31.616 61.796 31.392 61.6894 31.2C61.5827 31.008 61.46 30.8533 61.3214 30.736C61.1827 30.6187 60.98 30.512 60.7134 30.416C60.4467 30.32 60.228 30.2507 60.0574 30.208C59.8974 30.1653 59.6574 30.112 59.3374 30.048C59.028 29.984 58.756 29.92 58.5214 29.856C58.2867 29.792 58.0254 29.696 57.7374 29.568C57.46 29.44 57.2307 29.296 57.0494 29.136C56.868 28.976 56.7134 28.7733 56.5854 28.528C56.4574 28.2827 56.3934 28.0053 56.3934 27.696C56.3934 27.056 56.6547 26.5493 57.1774 26.176C57.7107 25.8027 58.388 25.616 59.2094 25.616C60.1907 25.616 61.1294 25.8773 62.0254 26.4C62.0787 26.432 62.0894 26.4747 62.0574 26.528L61.9134 26.768C61.892 26.832 61.8494 26.8427 61.7854 26.8C60.9534 26.3307 60.0894 26.096 59.1934 26.096C58.5107 26.096 57.956 26.24 57.5294 26.528C57.1027 26.816 56.8894 27.2053 56.8894 27.696C56.8894 27.9947 56.9587 28.256 57.0974 28.48C57.236 28.6933 57.4387 28.8693 57.7054 29.008C57.9827 29.1467 58.244 29.2587 58.4894 29.344C58.7454 29.4187 59.06 29.4933 59.4334 29.568C59.796 29.6427 60.084 29.712 60.2974 29.776C60.5214 29.8293 60.7774 29.92 61.0654 30.048C61.364 30.1653 61.5934 30.2987 61.7534 30.448C61.924 30.5867 62.068 30.7787 62.1854 31.024C62.3027 31.2693 62.3614 31.5467 62.3614 31.856ZM64.6644 31.52C64.6644 32.2027 64.8297 32.7307 65.1604 33.104C65.5017 33.4667 65.987 33.648 66.6164 33.648C66.9364 33.648 67.2564 33.632 67.5764 33.6C67.6404 33.6 67.6724 33.632 67.6724 33.696V33.968C67.6724 34.032 67.6404 34.0693 67.5764 34.08C67.267 34.112 66.947 34.128 66.6164 34.128C65.8484 34.128 65.2457 33.904 64.8084 33.456C64.371 32.9973 64.1524 32.3573 64.1524 31.536V23.808C64.1524 23.744 64.1844 23.712 64.2484 23.712H64.5524C64.6164 23.712 64.6537 23.744 64.6644 23.808V25.792H67.3684C67.4324 25.792 67.4644 25.824 67.4644 25.888V26.16C67.4644 26.2347 67.4324 26.272 67.3684 26.272H64.6644V31.52ZM76.249 22.912C75.9503 22.88 75.6463 22.864 75.337 22.864C74.697 22.864 74.2063 23.0507 73.865 23.424C73.5343 23.7973 73.369 24.3253 73.369 25.008V25.792H76.169C76.233 25.792 76.265 25.824 76.265 25.888V26.16C76.265 26.2347 76.233 26.272 76.169 26.272H73.369V33.904C73.369 33.968 73.337 34 73.273 34H72.953C72.889 34 72.857 33.968 72.857 33.904V25.008C72.857 24.1973 73.0757 23.5627 73.513 23.104C73.9503 22.6347 74.5477 22.4 75.305 22.4C75.6357 22.4 75.961 22.416 76.281 22.448C76.345 22.4693 76.377 22.5067 76.377 22.56V22.832C76.377 22.9067 76.3343 22.9333 76.249 22.912ZM78.1636 34H77.8436C77.7796 34 77.7476 33.968 77.7476 33.904V25.888C77.7476 25.8133 77.7796 25.776 77.8436 25.776H78.1636C78.2276 25.776 78.2596 25.8133 78.2596 25.888V33.904C78.2596 33.968 78.2276 34 78.1636 34ZM78.4196 23.568C78.4196 23.6853 78.377 23.7813 78.2916 23.856C78.217 23.9307 78.121 23.968 78.0036 23.968C77.8863 23.968 77.785 23.9307 77.6996 23.856C77.625 23.7813 77.5876 23.6853 77.5876 23.568C77.5876 23.44 77.625 23.3387 77.6996 23.264C77.785 23.1893 77.8863 23.152 78.0036 23.152C78.121 23.152 78.217 23.1893 78.2916 23.264C78.377 23.3387 78.4196 23.44 78.4196 23.568ZM83.6124 34.096C83.2497 34.1387 82.9404 34.16 82.6844 34.16C81.3297 34.16 80.6524 33.28 80.6524 31.52V22.656C80.6524 22.592 80.6844 22.56 80.7484 22.56H81.0684C81.1324 22.56 81.1644 22.592 81.1644 22.656V31.568C81.1644 32.976 81.6764 33.68 82.7004 33.68C83.0204 33.68 83.3244 33.6587 83.6124 33.616C83.6764 33.616 83.7084 33.6427 83.7084 33.696V33.968C83.7084 34.032 83.6764 34.0747 83.6124 34.096ZM87.8624 34.096C87.4997 34.1387 87.1904 34.16 86.9344 34.16C85.5797 34.16 84.9024 33.28 84.9024 31.52V22.656C84.9024 22.592 84.9344 22.56 84.9984 22.56H85.3184C85.3824 22.56 85.4144 22.592 85.4144 22.656V31.568C85.4144 32.976 85.9264 33.68 86.9504 33.68C87.2704 33.68 87.5744 33.6587 87.8624 33.616C87.9264 33.616 87.9584 33.6427 87.9584 33.696V33.968C87.9584 34.032 87.9264 34.0747 87.8624 34.096ZM99.0371 31.152C99.0371 32.0373 98.7438 32.7627 98.1571 33.328C97.5811 33.8827 96.7651 34.16 95.7091 34.16C94.6638 34.16 93.8478 33.8773 93.2611 33.312C92.6745 32.7467 92.3811 32.0267 92.3811 31.152V28.624C92.3811 27.7493 92.6745 27.0293 93.2611 26.464C93.8478 25.8987 94.6638 25.616 95.7091 25.616C96.7651 25.616 97.5811 25.8987 98.1571 26.464C98.7438 27.0293 99.0371 27.7493 99.0371 28.624V31.152ZM92.8931 31.152C92.8931 31.8987 93.1331 32.512 93.6131 32.992C94.1038 33.4613 94.8025 33.696 95.7091 33.696C96.6158 33.696 97.3091 33.4613 97.7891 32.992C98.2798 32.512 98.5251 31.8987 98.5251 31.152V28.624C98.5251 27.888 98.2798 27.2853 97.7891 26.816C97.3091 26.336 96.6158 26.096 95.7091 26.096C94.8131 26.096 94.1198 26.336 93.6291 26.816C93.1385 27.2853 92.8931 27.888 92.8931 28.624V31.152ZM106.993 25.776H107.297C107.361 25.776 107.393 25.8133 107.393 25.888V33.424C107.393 33.4987 107.366 33.5413 107.313 33.552C106.438 33.9573 105.489 34.16 104.465 34.16C103.419 34.16 102.603 33.888 102.017 33.344C101.43 32.7893 101.137 31.984 101.137 30.928V25.888C101.137 25.8133 101.169 25.776 101.233 25.776H101.553C101.617 25.776 101.649 25.8133 101.649 25.888V30.928C101.649 31.8453 101.889 32.5387 102.369 33.008C102.859 33.4667 103.558 33.696 104.465 33.696C105.243 33.696 106.049 33.536 106.881 33.216V25.888C106.881 25.8133 106.918 25.776 106.993 25.776ZM110.289 31.52C110.289 32.2027 110.455 32.7307 110.785 33.104C111.127 33.4667 111.612 33.648 112.241 33.648C112.561 33.648 112.881 33.632 113.201 33.6C113.265 33.6 113.297 33.632 113.297 33.696V33.968C113.297 34.032 113.265 34.0693 113.201 34.08C112.892 34.112 112.572 34.128 112.241 34.128C111.473 34.128 110.871 33.904 110.433 33.456C109.996 32.9973 109.777 32.3573 109.777 31.536V23.808C109.777 23.744 109.809 23.712 109.873 23.712H110.177C110.241 23.712 110.279 23.744 110.289 23.808V25.792H112.993C113.057 25.792 113.089 25.824 113.089 25.888V26.16C113.089 26.2347 113.057 26.272 112.993 26.272H110.289V31.52ZM121.874 22.912C121.575 22.88 121.271 22.864 120.962 22.864C120.322 22.864 119.831 23.0507 119.49 23.424C119.159 23.7973 118.994 24.3253 118.994 25.008V25.792H121.794C121.858 25.792 121.89 25.824 121.89 25.888V26.16C121.89 26.2347 121.858 26.272 121.794 26.272H118.994V33.904C118.994 33.968 118.962 34 118.898 34H118.578C118.514 34 118.482 33.968 118.482 33.904V25.008C118.482 24.1973 118.701 23.5627 119.138 23.104C119.575 22.6347 120.173 22.4 120.93 22.4C121.261 22.4 121.586 22.416 121.906 22.448C121.97 22.4693 122.002 22.5067 122.002 22.56V22.832C122.002 22.9067 121.959 22.9333 121.874 22.912ZM129.334 31.152C129.334 32.0373 129.041 32.7627 128.454 33.328C127.878 33.8827 127.062 34.16 126.006 34.16C124.961 34.16 124.145 33.8773 123.558 33.312C122.971 32.7467 122.678 32.0267 122.678 31.152V28.624C122.678 27.7493 122.971 27.0293 123.558 26.464C124.145 25.8987 124.961 25.616 126.006 25.616C127.062 25.616 127.878 25.8987 128.454 26.464C129.041 27.0293 129.334 27.7493 129.334 28.624V31.152ZM123.19 31.152C123.19 31.8987 123.43 32.512 123.91 32.992C124.401 33.4613 125.099 33.696 126.006 33.696C126.913 33.696 127.606 33.4613 128.086 32.992C128.577 32.512 128.822 31.8987 128.822 31.152V28.624C128.822 27.888 128.577 27.2853 128.086 26.816C127.606 26.336 126.913 26.096 126.006 26.096C125.11 26.096 124.417 26.336 123.926 26.816C123.435 27.2853 123.19 27.888 123.19 28.624V31.152ZM131.898 34H131.578C131.514 34 131.482 33.968 131.482 33.904V26.288C131.482 26.2347 131.508 26.1973 131.562 26.176C132.34 25.8027 133.236 25.616 134.25 25.616C134.708 25.616 135.247 25.664 135.866 25.76C135.93 25.7707 135.962 25.808 135.962 25.872V26.144C135.962 26.2187 135.93 26.2453 135.866 26.224C135.332 26.1387 134.804 26.096 134.282 26.096C133.46 26.096 132.698 26.2347 131.994 26.512V33.904C131.994 33.968 131.962 34 131.898 34ZM142.266 26.416C143.045 25.8827 143.898 25.616 144.826 25.616C145.786 25.616 146.544 25.8827 147.098 26.416C147.653 26.9387 147.93 27.68 147.93 28.64V33.904C147.93 33.968 147.893 34 147.818 34H147.514C147.45 34 147.418 33.968 147.418 33.904V28.624C147.418 27.8133 147.189 27.1893 146.73 26.752C146.272 26.3147 145.632 26.096 144.81 26.096C143.957 26.096 143.2 26.3253 142.538 26.784C142.837 27.2853 142.986 27.8987 142.986 28.624V33.904C142.986 33.968 142.954 34 142.89 34H142.57C142.506 34 142.474 33.968 142.474 33.904V28.624C142.474 26.9387 141.685 26.096 140.106 26.096C139.413 26.096 138.698 26.2453 137.962 26.544V33.904C137.962 33.968 137.93 34 137.866 34H137.546C137.482 34 137.45 33.968 137.45 33.904V26.336C137.45 26.2827 137.477 26.24 137.53 26.208C138.384 25.8133 139.237 25.616 140.09 25.616C141.029 25.616 141.754 25.8827 142.266 26.416ZM154.603 26.352C155.36 25.8613 156.192 25.616 157.099 25.616C158.176 25.616 159.008 25.904 159.595 26.48C160.182 27.0453 160.475 27.8987 160.475 29.04V30.752C160.475 31.8933 160.176 32.7467 159.579 33.312C158.992 33.8773 158.16 34.16 157.083 34.16C156.059 34.16 155.088 33.9733 154.171 33.6C154.118 33.5787 154.091 33.5413 154.091 33.488V22.656C154.091 22.592 154.123 22.56 154.187 22.56H154.507C154.571 22.56 154.603 22.592 154.603 22.656V26.352ZM157.083 33.696C158.992 33.696 159.947 32.7147 159.947 30.752V29.04C159.947 27.0773 158.992 26.096 157.083 26.096C156.176 26.096 155.35 26.352 154.603 26.864V33.264C155.414 33.552 156.24 33.696 157.083 33.696ZM168.687 28.656V30.096C168.687 30.16 168.655 30.192 168.591 30.192H162.831V31.248C162.831 31.9947 163.087 32.592 163.599 33.04C164.121 33.4773 164.761 33.696 165.519 33.696C166.5 33.696 167.407 33.3227 168.239 32.576C168.292 32.544 168.335 32.5493 168.367 32.592L168.543 32.8C168.596 32.8533 168.591 32.896 168.527 32.928C167.641 33.7493 166.633 34.16 165.503 34.16C164.617 34.16 163.865 33.8987 163.247 33.376C162.628 32.8427 162.319 32.1333 162.319 31.248V28.656C162.319 27.7067 162.607 26.9653 163.183 26.432C163.769 25.888 164.543 25.616 165.503 25.616C166.463 25.616 167.231 25.888 167.807 26.432C168.393 26.9653 168.687 27.7067 168.687 28.656ZM168.175 28.656C168.175 27.856 167.929 27.232 167.439 26.784C166.959 26.3253 166.313 26.096 165.503 26.096C164.681 26.096 164.031 26.32 163.551 26.768C163.071 27.216 162.831 27.8453 162.831 28.656V29.744H168.175V28.656ZM173.628 34.096C173.265 34.1387 172.956 34.16 172.7 34.16C171.345 34.16 170.668 33.28 170.668 31.52V22.656C170.668 22.592 170.7 22.56 170.764 22.56H171.084C171.148 22.56 171.18 22.592 171.18 22.656V31.568C171.18 32.976 171.692 33.68 172.716 33.68C173.036 33.68 173.34 33.6587 173.628 33.616C173.692 33.616 173.724 33.6427 173.724 33.696V33.968C173.724 34.032 173.692 34.0747 173.628 34.096ZM181.178 31.152C181.178 32.0373 180.884 32.7627 180.298 33.328C179.722 33.8827 178.906 34.16 177.85 34.16C176.804 34.16 175.988 33.8773 175.402 33.312C174.815 32.7467 174.522 32.0267 174.522 31.152V28.624C174.522 27.7493 174.815 27.0293 175.402 26.464C175.988 25.8987 176.804 25.616 177.85 25.616C178.906 25.616 179.722 25.8987 180.298 26.464C180.884 27.0293 181.178 27.7493 181.178 28.624V31.152ZM175.034 31.152C175.034 31.8987 175.274 32.512 175.754 32.992C176.244 33.4613 176.943 33.696 177.85 33.696C178.756 33.696 179.45 33.4613 179.93 32.992C180.42 32.512 180.666 31.8987 180.666 31.152V28.624C180.666 27.888 180.42 27.2853 179.93 26.816C179.45 26.336 178.756 26.096 177.85 26.096C176.954 26.096 176.26 26.336 175.77 26.816C175.279 27.2853 175.034 27.888 175.034 28.624V31.152ZM185.455 34H185.039C184.997 34 184.965 33.9733 184.943 33.92L182.383 25.904C182.362 25.8187 182.389 25.776 182.463 25.776H182.799C182.853 25.776 182.89 25.8027 182.911 25.856L185.247 33.344H185.263L187.663 26.048C187.685 25.9947 187.717 25.968 187.759 25.968H188.143C188.197 25.968 188.234 25.9947 188.255 26.048L190.655 33.344L193.007 25.856C193.029 25.8027 193.061 25.776 193.103 25.776H193.439C193.525 25.776 193.551 25.8187 193.519 25.904L190.975 33.92C190.954 33.9733 190.917 34 190.863 34H190.463C190.41 34 190.373 33.9733 190.351 33.92L187.967 26.64H187.951L185.551 33.92C185.53 33.9733 185.498 34 185.455 34Z" fill="#323232"/>
</svg>
