<svg width="40" height="40" viewBox="0 0 40 40" fill="none" xmlns="http://www.w3.org/2000/svg">
<g filter="url(#filter0_b)">
<circle opacity="0.52" cx="20" cy="20" r="20" fill="#E62D26" fill-opacity="0.9"/>
<path d="M18.1209 28.1207C14.4234 27.2682 11.6667 23.9557 11.6667 19.9998C11.6667 15.3973 15.3976 11.6665 20.0001 11.6665C24.6026 11.6665 28.3334 15.3973 28.3334 19.9998C28.3334 23.9557 25.5767 27.2682 21.8792 28.1207L20.0001 29.9998L18.1209 28.1207ZM15.8434 25.214C16.6199 25.835 17.5262 26.2733 18.4951 26.4965L18.9617 26.604L20.0001 27.6432L21.0392 26.604L21.5059 26.4957C22.5381 26.2577 23.4982 25.7759 24.3059 25.0907C23.7633 24.5336 23.1144 24.0911 22.3977 23.7892C21.681 23.4874 20.9111 23.3323 20.1334 23.3332C18.4367 23.3332 16.9084 24.0582 15.8434 25.214ZM14.6801 24.0165C15.3805 23.2732 16.2256 22.6813 17.1635 22.2771C18.1014 21.8729 19.1121 21.6651 20.1334 21.6665C21.1181 21.6652 22.0934 21.8585 23.0032 22.2352C23.913 22.6118 24.7395 23.1645 25.4351 23.8615C26.1485 22.8574 26.5698 21.6754 26.6522 20.4464C26.7347 19.2175 26.475 17.9897 25.9022 16.8994C25.3293 15.809 24.4655 14.8987 23.4067 14.2694C22.3479 13.6401 21.1355 13.3164 19.9039 13.3342C18.6723 13.3521 17.4698 13.7107 16.4297 14.3705C15.3896 15.0302 14.5525 15.9652 14.0115 17.0717C13.4704 18.1782 13.2465 19.4129 13.3645 20.639C13.4825 21.865 13.9379 23.0344 14.6801 24.0173V24.0165ZM20.0001 20.8332C19.116 20.8332 18.2682 20.482 17.6431 19.8569C17.0179 19.2317 16.6667 18.3839 16.6667 17.4998C16.6667 16.6158 17.0179 15.7679 17.6431 15.1428C18.2682 14.5177 19.116 14.1665 20.0001 14.1665C20.8841 14.1665 21.732 14.5177 22.3571 15.1428C22.9822 15.7679 23.3334 16.6158 23.3334 17.4998C23.3334 18.3839 22.9822 19.2317 22.3571 19.8569C21.732 20.482 20.8841 20.8332 20.0001 20.8332ZM20.0001 19.1665C20.4421 19.1665 20.866 18.9909 21.1786 18.6783C21.4912 18.3658 21.6667 17.9419 21.6667 17.4998C21.6667 17.0578 21.4912 16.6339 21.1786 16.3213C20.866 16.0088 20.4421 15.8332 20.0001 15.8332C19.5581 15.8332 19.1341 16.0088 18.8216 16.3213C18.509 16.6339 18.3334 17.0578 18.3334 17.4998C18.3334 17.9419 18.509 18.3658 18.8216 18.6783C19.1341 18.9909 19.5581 19.1665 20.0001 19.1665Z" fill="white"/>
</g>
<defs>
<filter id="filter0_b" x="-44" y="-44" width="128" height="128" filterUnits="userSpaceOnUse" color-interpolation-filters="sRGB">
<feFlood flood-opacity="0" result="BackgroundImageFix"/>
<feGaussianBlur in="BackgroundImage" stdDeviation="22"/>
<feComposite in2="SourceAlpha" operator="in" result="effect1_backgroundBlur"/>
<feBlend mode="normal" in="SourceGraphic" in2="effect1_backgroundBlur" result="shape"/>
</filter>
</defs>
</svg>
