<svg width="40" height="40" viewBox="0 0 40 40" fill="none" xmlns="http://www.w3.org/2000/svg">
<g filter="url(#filter0_b)">
<circle opacity="0.52" cx="20" cy="20" r="20" fill="#E62D26" fill-opacity="0.9"/>
<path d="M20.0001 28.3332C15.3976 28.3332 11.6667 24.6023 11.6667 19.9998C11.6667 15.3973 15.3976 11.6665 20.0001 11.6665C24.6026 11.6665 28.3334 15.3973 28.3334 19.9998C28.3334 24.6023 24.6026 28.3332 20.0001 28.3332ZM20.0001 26.6665C21.7682 26.6665 23.4639 25.9641 24.7141 24.7139C25.9644 23.4636 26.6667 21.7679 26.6667 19.9998C26.6667 18.2317 25.9644 16.536 24.7141 15.2858C23.4639 14.0355 21.7682 13.3332 20.0001 13.3332C18.232 13.3332 16.5363 14.0355 15.286 15.2858C14.0358 16.536 13.3334 18.2317 13.3334 19.9998C13.3334 21.7679 14.0358 23.4636 15.286 24.7139C16.5363 25.9641 18.232 26.6665 20.0001 26.6665ZM15.8334 19.9998H17.5001C17.5001 20.6629 17.7635 21.2988 18.2323 21.7676C18.7012 22.2364 19.337 22.4998 20.0001 22.4998C20.6631 22.4998 21.299 22.2364 21.7678 21.7676C22.2367 21.2988 22.5001 20.6629 22.5001 19.9998H24.1667C24.1667 21.1049 23.7278 22.1647 22.9464 22.9461C22.165 23.7275 21.1052 24.1665 20.0001 24.1665C18.895 24.1665 17.8352 23.7275 17.0538 22.9461C16.2724 22.1647 15.8334 21.1049 15.8334 19.9998Z" fill="white"/>
</g>
<defs>
<filter id="filter0_b" x="-44" y="-44" width="128" height="128" filterUnits="userSpaceOnUse" color-interpolation-filters="sRGB">
<feFlood flood-opacity="0" result="BackgroundImageFix"/>
<feGaussianBlur in="BackgroundImage" stdDeviation="22"/>
<feComposite in2="SourceAlpha" operator="in" result="effect1_backgroundBlur"/>
<feBlend mode="normal" in="SourceGraphic" in2="effect1_backgroundBlur" result="shape"/>
</filter>
</defs>
</svg>
