<svg width="40" height="40" viewBox="0 0 40 40" fill="none" xmlns="http://www.w3.org/2000/svg">
<g filter="url(#filter0_b)">
<circle opacity="0.52" cx="20" cy="20" r="20" fill="#E62D26" fill-opacity="0.9"/>
<path d="M27.0653 12.0654C27.2863 12.0654 27.4982 12.1532 27.6545 12.3095C27.8108 12.4658 27.8986 12.6777 27.8986 12.8988V24.5654C27.8986 24.7864 27.8108 24.9984 27.6545 25.1547C27.4982 25.311 27.2863 25.3988 27.0653 25.3988H14.9444L11.2319 28.3154V12.8988C11.2319 12.6777 11.3197 12.4658 11.476 12.3095C11.6323 12.1532 11.8443 12.0654 12.0653 12.0654H27.0653ZM26.2319 13.7321H12.8986V24.8863L14.3678 23.7321H26.2319V13.7321ZM18.3278 15.7421L18.7003 16.3154C17.3103 17.0679 17.3344 18.2754 17.3344 18.5354C17.4636 18.5188 17.5994 18.5154 17.7344 18.5279C18.0996 18.5587 18.44 18.725 18.6888 18.9941C18.9375 19.2632 19.0766 19.6156 19.0786 19.9821C19.0786 20.3689 18.925 20.7398 18.6515 21.0133C18.378 21.2868 18.007 21.4404 17.6203 21.4404C17.1728 21.4404 16.7453 21.2363 16.4753 20.9488C16.0461 20.4938 15.8153 19.9821 15.8153 19.1529C15.8153 17.6946 16.8386 16.3879 18.3278 15.7421ZM22.4944 15.7421L22.8669 16.3154C21.4769 17.0679 21.5011 18.2754 21.5011 18.5354C21.6303 18.5188 21.7661 18.5154 21.9011 18.5279C22.2663 18.5587 22.6067 18.725 22.8554 18.9941C23.1042 19.2632 23.2432 19.6156 23.2453 19.9821C23.2453 20.3689 23.0916 20.7398 22.8181 21.0133C22.5446 21.2868 22.1737 21.4404 21.7869 21.4404C21.3394 21.4404 20.9119 21.2363 20.6419 20.9488C20.2128 20.4938 19.9819 19.9821 19.9819 19.1529C19.9819 17.6946 21.0053 16.3879 22.4944 15.7421Z" fill="white"/>
</g>
<defs>
<filter id="filter0_b" x="-44" y="-44" width="128" height="128" filterUnits="userSpaceOnUse" color-interpolation-filters="sRGB">
<feFlood flood-opacity="0" result="BackgroundImageFix"/>
<feGaussianBlur in="BackgroundImage" stdDeviation="22"/>
<feComposite in2="SourceAlpha" operator="in" result="effect1_backgroundBlur"/>
<feBlend mode="normal" in="SourceGraphic" in2="effect1_backgroundBlur" result="shape"/>
</filter>
</defs>
</svg>
