<svg width="40" height="40" viewBox="0 0 40 40" fill="none" xmlns="http://www.w3.org/2000/svg">
<g filter="url(#filter0_b)">
<circle opacity="0.52" cx="20" cy="20" r="20" fill="#E62D26" fill-opacity="0.9"/>
<path d="M17.9168 18.7502H20.0001C20.2211 18.7502 20.4331 18.6624 20.5893 18.5061C20.7456 18.3499 20.8334 18.1379 20.8334 17.9169C20.8334 17.6959 20.7456 17.4839 20.5893 17.3276C20.4331 17.1714 20.2211 17.0836 20.0001 17.0836H19.1668V16.6669C19.1668 16.4459 19.079 16.2339 18.9227 16.0776C18.7664 15.9214 18.5544 15.8336 18.3334 15.8336C18.1124 15.8336 17.9004 15.9214 17.7442 16.0776C17.5879 16.2339 17.5001 16.4459 17.5001 16.6669V17.1252C16.9938 17.228 16.5437 17.5153 16.2373 17.9313C15.9309 18.3472 15.79 18.8622 15.8419 19.3763C15.8938 19.8903 16.1349 20.3667 16.5183 20.713C16.9017 21.0593 17.4001 21.2507 17.9168 21.2502H18.7501C18.8606 21.2502 18.9666 21.2941 19.0447 21.3723C19.1229 21.4504 19.1668 21.5564 19.1668 21.6669C19.1668 21.7774 19.1229 21.8834 19.0447 21.9615C18.9666 22.0397 18.8606 22.0836 18.7501 22.0836H16.6668C16.4457 22.0836 16.2338 22.1714 16.0775 22.3276C15.9212 22.4839 15.8334 22.6959 15.8334 22.9169C15.8334 23.1379 15.9212 23.3499 16.0775 23.5061C16.2338 23.6624 16.4457 23.7502 16.6668 23.7502H17.5001V24.1669C17.5001 24.3879 17.5879 24.5999 17.7442 24.7561C17.9004 24.9124 18.1124 25.0002 18.3334 25.0002C18.5544 25.0002 18.7664 24.9124 18.9227 24.7561C19.079 24.5999 19.1668 24.3879 19.1668 24.1669V23.7086C19.6731 23.6057 20.1231 23.3185 20.4295 22.9025C20.736 22.4865 20.8769 21.9715 20.825 21.4575C20.773 20.9435 20.532 20.4671 20.1486 20.1208C19.7651 19.7745 19.2667 19.583 18.7501 19.5836H17.9168C17.8062 19.5836 17.7003 19.5397 17.6221 19.4615C17.544 19.3834 17.5001 19.2774 17.5001 19.1669C17.5001 19.0564 17.544 18.9504 17.6221 18.8723C17.7003 18.7941 17.8062 18.7502 17.9168 18.7502ZM27.5001 20.0002H25.0001V12.5002C25.0007 12.3534 24.9624 12.209 24.8893 12.0817C24.8161 11.9544 24.7106 11.8486 24.5834 11.7752C24.4567 11.7021 24.313 11.6636 24.1668 11.6636C24.0205 11.6636 23.8768 11.7021 23.7501 11.7752L21.2501 13.2086L18.7501 11.7752C18.6234 11.7021 18.4797 11.6636 18.3334 11.6636C18.1871 11.6636 18.0434 11.7021 17.9168 11.7752L15.4168 13.2086L12.9168 11.7752C12.7901 11.7021 12.6464 11.6636 12.5001 11.6636C12.3538 11.6636 12.2101 11.7021 12.0834 11.7752C11.9563 11.8486 11.8507 11.9544 11.7776 12.0817C11.7044 12.209 11.6662 12.3534 11.6668 12.5002V25.8336C11.6668 26.4966 11.9301 27.1325 12.399 27.6013C12.8678 28.0702 13.5037 28.3336 14.1668 28.3336H25.8334C26.4965 28.3336 27.1323 28.0702 27.6012 27.6013C28.07 27.1325 28.3334 26.4966 28.3334 25.8336V20.8336C28.3334 20.6125 28.2456 20.4006 28.0893 20.2443C27.9331 20.088 27.7211 20.0002 27.5001 20.0002ZM14.1668 26.6669C13.9457 26.6669 13.7338 26.5791 13.5775 26.4228C13.4212 26.2665 13.3334 26.0546 13.3334 25.8336V13.9419L15.0001 14.8919C15.1287 14.9591 15.2717 14.9941 15.4168 14.9941C15.5619 14.9941 15.7048 14.9591 15.8334 14.8919L18.3334 13.4586L20.8334 14.8919C20.962 14.9591 21.105 14.9941 21.2501 14.9941C21.3952 14.9941 21.5381 14.9591 21.6668 14.8919L23.3334 13.9419V25.8336C23.3357 26.1178 23.3864 26.3997 23.4834 26.6669H14.1668ZM26.6668 25.8336C26.6668 26.0546 26.579 26.2665 26.4227 26.4228C26.2664 26.5791 26.0544 26.6669 25.8334 26.6669C25.6124 26.6669 25.4004 26.5791 25.2442 26.4228C25.0879 26.2665 25.0001 26.0546 25.0001 25.8336V21.6669H26.6668V25.8336Z" fill="white"/>
</g>
<defs>
<filter id="filter0_b" x="-44" y="-44" width="128" height="128" filterUnits="userSpaceOnUse" color-interpolation-filters="sRGB">
<feFlood flood-opacity="0" result="BackgroundImageFix"/>
<feGaussianBlur in="BackgroundImage" stdDeviation="22"/>
<feComposite in2="SourceAlpha" operator="in" result="effect1_backgroundBlur"/>
<feBlend mode="normal" in="SourceGraphic" in2="effect1_backgroundBlur" result="shape"/>
</filter>
</defs>
</svg>
