<svg width="40" height="40" viewBox="0 0 40 40" fill="none" xmlns="http://www.w3.org/2000/svg">
<g filter="url(#filter0_b)">
<circle opacity="0.52" cx="20" cy="20" r="20" fill="#E62D26" fill-opacity="0.9"/>
<path d="M16.4701 26.0207C16.9617 25.804 17.5117 25.7632 18.0267 25.9048C18.6684 26.0798 19.3309 26.1682 20.0001 26.1665C23.8209 26.1665 26.6667 23.4273 26.6667 19.7498C26.6667 16.0723 23.8209 13.3332 20.0001 13.3332C16.1792 13.3332 13.3334 16.0723 13.3334 19.7498C13.3334 21.6415 14.0801 23.3098 15.3884 24.4798C15.6261 24.6904 15.8184 24.9473 15.9533 25.2347C16.0883 25.5221 16.1632 25.8341 16.1734 26.1515L16.4701 26.0207ZM20.0001 11.6665C24.6951 11.6665 28.3334 15.1057 28.3334 19.7498C28.3334 24.394 24.6951 27.8332 20.0001 27.8332C19.1852 27.8353 18.3737 27.7276 17.5876 27.5132C17.4399 27.4726 17.2828 27.484 17.1426 27.5457L15.4892 28.2757C15.3894 28.3198 15.2801 28.3387 15.1712 28.3308C15.0623 28.3228 14.957 28.2883 14.8646 28.2301C14.7722 28.1719 14.6954 28.0919 14.6412 27.9971C14.5869 27.9023 14.5568 27.7957 14.5534 27.6865L14.5076 26.2032C14.5046 26.113 14.4832 26.0243 14.4448 25.9427C14.4064 25.861 14.3518 25.788 14.2842 25.7282C12.6626 24.279 11.6667 22.1807 11.6667 19.7498C11.6667 15.1057 15.3059 11.6665 20.0001 11.6665ZM14.9959 22.114L17.4434 18.2307C17.5355 18.0845 17.6569 17.9589 17.7999 17.862C17.943 17.7651 18.1046 17.6989 18.2745 17.6676C18.4444 17.6362 18.619 17.6405 18.7872 17.68C18.9554 17.7196 19.1136 17.7936 19.2517 17.8973L21.1984 19.3557C21.2852 19.4212 21.3909 19.4566 21.4997 19.4566C21.6084 19.4566 21.7141 19.4212 21.8009 19.3557L24.4301 17.359C24.7809 17.0932 25.2392 17.5132 25.0042 17.8865L22.5567 21.7698C22.4647 21.916 22.3433 22.0416 22.2002 22.1385C22.0572 22.2354 21.8956 22.3016 21.7257 22.3329C21.5557 22.3643 21.3812 22.36 21.213 22.3205C21.0448 22.2809 20.8866 22.2069 20.7484 22.1032L18.8017 20.6448C18.715 20.5793 18.6092 20.5439 18.5005 20.5439C18.3918 20.5439 18.286 20.5793 18.1992 20.6448L15.5701 22.6407C15.2192 22.9065 14.7609 22.4865 14.9959 22.1132V22.114Z" fill="white"/>
</g>
<defs>
<filter id="filter0_b" x="-44" y="-44" width="128" height="128" filterUnits="userSpaceOnUse" color-interpolation-filters="sRGB">
<feFlood flood-opacity="0" result="BackgroundImageFix"/>
<feGaussianBlur in="BackgroundImage" stdDeviation="22"/>
<feComposite in2="SourceAlpha" operator="in" result="effect1_backgroundBlur"/>
<feBlend mode="normal" in="SourceGraphic" in2="effect1_backgroundBlur" result="shape"/>
</filter>
</defs>
</svg>
