<svg width="40" height="40" viewBox="0 0 40 40" fill="none" xmlns="http://www.w3.org/2000/svg">
<g filter="url(#filter0_b)">
<circle opacity="0.52" cx="20" cy="20" r="20" fill="#E62D26" fill-opacity="0.9"/>
<path d="M26.6149 16.6664H27.4999C27.9419 16.6664 28.3659 16.842 28.6784 17.1546C28.991 17.4671 29.1666 17.8911 29.1666 18.3331V21.6664C29.1666 22.1084 28.991 22.5324 28.6784 22.8449C28.3659 23.1575 27.9419 23.3331 27.4999 23.3331H26.6149C26.4118 24.9442 25.6276 26.4257 24.4097 27.4998C23.1918 28.5738 21.6238 29.1664 19.9999 29.1664V27.4998C21.326 27.4998 22.5978 26.973 23.5355 26.0353C24.4731 25.0976 24.9999 23.8258 24.9999 22.4998V17.4998C24.9999 16.1737 24.4731 14.9019 23.5355 13.9642C22.5978 13.0265 21.326 12.4998 19.9999 12.4998C18.6738 12.4998 17.4021 13.0265 16.4644 13.9642C15.5267 14.9019 14.9999 16.1737 14.9999 17.4998V23.3331H12.4999C12.0579 23.3331 11.634 23.1575 11.3214 22.8449C11.0088 22.5324 10.8333 22.1084 10.8333 21.6664V18.3331C10.8333 17.8911 11.0088 17.4671 11.3214 17.1546C11.634 16.842 12.0579 16.6664 12.4999 16.6664H13.3849C13.5883 15.0555 14.3725 13.5741 15.5904 12.5003C16.8083 11.4265 18.3762 10.834 19.9999 10.834C21.6236 10.834 23.1915 11.4265 24.4094 12.5003C25.6273 13.5741 26.4116 15.0555 26.6149 16.6664ZM12.4999 18.3331V21.6664H13.3333V18.3331H12.4999ZM26.6666 18.3331V21.6664H27.4999V18.3331H26.6666ZM16.4666 23.1539L17.3499 21.7406C18.1441 22.2381 19.0627 22.5013 19.9999 22.4998C20.9371 22.5013 21.8557 22.2381 22.6499 21.7406L23.5333 23.1539C22.4743 23.8174 21.2495 24.1683 19.9999 24.1664C18.7503 24.1683 17.5255 23.8174 16.4666 23.1539Z" fill="white"/>
</g>
<defs>
<filter id="filter0_b" x="-44" y="-44" width="128" height="128" filterUnits="userSpaceOnUse" color-interpolation-filters="sRGB">
<feFlood flood-opacity="0" result="BackgroundImageFix"/>
<feGaussianBlur in="BackgroundImage" stdDeviation="22"/>
<feComposite in2="SourceAlpha" operator="in" result="effect1_backgroundBlur"/>
<feBlend mode="normal" in="SourceGraphic" in2="effect1_backgroundBlur" result="shape"/>
</filter>
</defs>
</svg>
