<svg width="40" height="40" viewBox="0 0 40 40" fill="none" xmlns="http://www.w3.org/2000/svg">
<g filter="url(#filter0_b)">
<circle opacity="0.52" cx="20" cy="20" r="20" fill="#E62D26" fill-opacity="0.9"/>
<path d="M24.1667 26.6667H15.8334V27.5C15.8334 27.721 15.7456 27.933 15.5893 28.0893C15.4331 28.2455 15.2211 28.3333 15.0001 28.3333H13.3334C13.1124 28.3333 12.9004 28.2455 12.7442 28.0893C12.5879 27.933 12.5001 27.721 12.5001 27.5V20H11.6667V16.6667H12.5001V14.1667C12.5001 13.7246 12.6757 13.3007 12.9882 12.9882C13.3008 12.6756 13.7247 12.5 14.1667 12.5H25.8334C26.2754 12.5 26.6994 12.6756 27.0119 12.9882C27.3245 13.3007 27.5001 13.7246 27.5001 14.1667V16.6667H28.3334V20H27.5001V27.5C27.5001 27.721 27.4123 27.933 27.256 28.0893C27.0997 28.2455 26.8878 28.3333 26.6667 28.3333H25.0001C24.7791 28.3333 24.5671 28.2455 24.4108 28.0893C24.2545 27.933 24.1667 27.721 24.1667 27.5V26.6667ZM14.1667 14.1667V19.1667H25.8334V14.1667H14.1667ZM25.8334 20.8333H14.1667V25H25.8334V20.8333ZM16.2501 24.1667C15.9186 24.1667 15.6006 24.035 15.3662 23.8006C15.1318 23.5661 15.0001 23.2482 15.0001 22.9167C15.0001 22.5851 15.1318 22.2672 15.3662 22.0328C15.6006 21.7984 15.9186 21.6667 16.2501 21.6667C16.5816 21.6667 16.8995 21.7984 17.134 22.0328C17.3684 22.2672 17.5001 22.5851 17.5001 22.9167C17.5001 23.2482 17.3684 23.5661 17.134 23.8006C16.8995 24.035 16.5816 24.1667 16.2501 24.1667ZM23.7501 24.1667C23.4186 24.1667 23.1006 24.035 22.8662 23.8006C22.6318 23.5661 22.5001 23.2482 22.5001 22.9167C22.5001 22.5851 22.6318 22.2672 22.8662 22.0328C23.1006 21.7984 23.4186 21.6667 23.7501 21.6667C24.0816 21.6667 24.3995 21.7984 24.634 22.0328C24.8684 22.2672 25.0001 22.5851 25.0001 22.9167C25.0001 23.2482 24.8684 23.5661 24.634 23.8006C24.3995 24.035 24.0816 24.1667 23.7501 24.1667Z" fill="white"/>
</g>
<defs>
<filter id="filter0_b" x="-44" y="-44" width="128" height="128" filterUnits="userSpaceOnUse" color-interpolation-filters="sRGB">
<feFlood flood-opacity="0" result="BackgroundImageFix"/>
<feGaussianBlur in="BackgroundImage" stdDeviation="22"/>
<feComposite in2="SourceAlpha" operator="in" result="effect1_backgroundBlur"/>
<feBlend mode="normal" in="SourceGraphic" in2="effect1_backgroundBlur" result="shape"/>
</filter>
</defs>
</svg>
